<svg width="16" height="22" viewBox="0 0 16 22" fill="none" xmlns="http://www.w3.org/2000/svg">
<path d="M14.8371 4.7604C10.2659 4.38503 8.9259 1.74397 8.86071 1.60877C8.66676 1.18889 8.25793 0.926044 7.81046 0.920166C7.363 0.920166 6.94049 1.18469 6.73768 1.60709C6.68457 1.71794 5.35506 4.38335 0.760524 4.76124C0.338011 4.79567 0 5.14753 0 5.58924V10.8856C0 17.0142 6.96463 20.8175 7.26079 20.9762C7.4298 21.0669 7.6149 21.1122 7.8 21.1122C7.9851 21.1122 8.1694 21.0669 8.33921 20.9762C8.63537 20.8175 15.6 17.0142 15.6 10.8856V5.58924C15.6 5.14669 15.262 4.79567 14.8387 4.7604H14.8371Z" fill="#00B4E5"/>
<path d="M11.7547 9.99063L7.65507 14.2684C7.4249 14.5085 7.1231 14.6286 6.82131 14.6286C6.51951 14.6286 6.21772 14.5085 5.98755 14.2684L3.8444 12.0321C3.38406 11.5517 3.38406 10.7724 3.8444 10.2921C4.30474 9.81176 5.05158 9.81176 5.51192 10.2921L6.82131 11.6576L10.0871 8.25064C10.5475 7.77029 11.2943 7.77029 11.7547 8.25064C12.215 8.73098 12.215 9.51028 11.7547 9.99063Z" fill="white"/>
</svg>
