<svg width="29" height="28" viewBox="0 0 29 28" fill="none" xmlns="http://www.w3.org/2000/svg">
<path d="M5.89651 11.3988V27.9433H0.881836V11.3988H5.89651ZM10.9112 27.9433C10.2463 27.9433 9.60398 27.6525 9.14196 27.1313C8.66866 26.6101 8.40948 25.9071 8.40948 25.1799V11.3867C8.40948 10.6231 8.67993 9.94436 9.15323 9.44742L17.4021 0.369141L18.7318 1.83572C19.0699 2.21146 19.284 2.72052 19.284 3.27807L19.2502 3.71441L18.0557 10.0171H25.9665C26.6313 10.0171 27.2737 10.308 27.7357 10.8292C28.209 11.3503 28.4682 12.0533 28.4682 12.7806V15.544C28.4682 15.9077 28.4006 16.2349 28.2879 16.55L24.5015 26.2707C24.1296 27.2646 23.2394 27.9555 22.1914 27.9555H10.8999L10.9112 27.9433ZM10.9112 25.1799H22.2365L25.9665 15.5319V12.7684H14.9455L16.3653 5.43552L10.9224 11.4352V25.1799H10.9112Z" fill="#2F438F"/>
</svg>
