<svg width="24" height="32" viewBox="0 0 24 32" fill="none" xmlns="http://www.w3.org/2000/svg">
<path d="M12.006 32C11.0717 32 10.2072 31.5295 9.7052 30.7545C7.39046 27.1427 4.39244 22.4653 3.33268 20.7216C2.64941 19.6146 1.99403 18.5075 1.33865 17.3727C1.01793 16.8192 0.766934 16.2241 0.571715 15.5737C0.362551 14.8818 0.223108 14.2591 0.125498 13.6779C0.0418328 13.0551 0 12.4047 0 11.7405C0.0697213 6.50953 3.6534 1.85981 8.74305 0.448282C9.46815 0.240705 10.2211 0.10232 11.002 0.0331276C11.6435 -0.00838782 12.2291 -0.00838782 12.7869 0.0192891C15.4223 0.199189 17.751 1.14021 19.7451 2.80082C21.6415 4.39225 22.9383 6.41266 23.5937 8.80672C23.775 9.45713 23.9005 10.1491 23.9562 10.8687C24.012 11.4775 24.012 12.1141 23.9702 12.7507C23.9144 13.5948 23.761 14.439 23.51 15.2554C23.4264 15.5322 23.3427 15.809 23.2451 16.0719C23.1196 16.4317 22.9522 16.8054 22.757 17.1652C22.1714 18.203 21.5578 19.2409 20.9303 20.265C19.7869 22.1193 16.2729 27.6409 14.265 30.7545C13.763 31.5295 12.9124 32 11.9921 32H12.006ZM12.0199 1.27859C11.7271 1.27859 11.4203 1.29243 11.0996 1.32011C10.4024 1.37546 9.73309 1.50001 9.07771 1.67991C4.55977 2.93921 1.35259 7.09075 1.29682 11.7682C1.29682 12.3494 1.3247 12.9444 1.40837 13.498C1.49204 14.01 1.61753 14.5774 1.81275 15.2139C1.98008 15.7675 2.20319 16.2795 2.46813 16.75C3.10957 17.8709 3.76495 18.9642 4.43427 20.0574C5.49404 21.801 8.47811 26.4646 10.7929 30.0765C11.0578 30.4916 11.504 30.7407 12.006 30.7407C12.4941 30.7407 12.9263 30.5054 13.1913 30.0903C15.1853 26.9766 18.6992 21.4689 19.8427 19.6146C20.4562 18.6044 21.0698 17.5941 21.6415 16.5563C21.8088 16.2657 21.9343 15.975 22.0459 15.6706C22.1295 15.4077 22.2132 15.1447 22.2829 14.8956C22.506 14.176 22.6315 13.4288 22.6873 12.6677C22.7291 12.1003 22.7291 11.5329 22.6734 10.9932C22.6176 10.3566 22.506 9.7339 22.3526 9.16652C21.767 7.02156 20.6096 5.22255 18.9084 3.81103C17.1375 2.31648 15.0459 1.48617 12.6893 1.32011C12.4662 1.30627 12.2431 1.29243 12.006 1.29243L12.0199 1.27859ZM11.9921 17.5111C10.5 17.5111 9.09166 16.9161 8.01795 15.8643C6.94424 14.7988 6.35858 13.4011 6.35858 11.8927C6.35858 8.80672 8.89644 6.30196 12.006 6.30196C13.498 6.30196 14.9204 6.89701 15.9801 7.94873C17.0538 9.0143 17.6395 10.412 17.6395 11.9204C17.6395 13.4011 17.0538 14.8126 15.9801 15.8643C14.9064 16.9161 13.498 17.5111 11.9921 17.5111ZM12.006 7.58893C9.60759 7.58893 7.6554 9.51248 7.6554 11.8927C7.6554 13.0413 8.10161 14.1345 8.93827 14.951C9.76098 15.7675 10.8486 16.2241 12.006 16.2241H12.0199C13.1773 16.2241 14.265 15.7675 15.1016 14.951C15.9243 14.1345 16.3845 13.0551 16.3845 11.9065C16.3845 10.7579 15.9383 9.6647 15.1016 8.84823C14.2789 8.03176 13.1913 7.57509 12.0339 7.57509L12.006 7.58893Z" fill="#2D458F"/>
</svg>
