<svg width="27" height="25" viewBox="0 0 27 25" fill="none" xmlns="http://www.w3.org/2000/svg">
<path d="M13.1911 24.4042C11.7943 24.4042 10.3975 24.3914 9.00122 24.4105C8.46716 24.418 7.78245 24.0211 7.73754 23.3966C7.72768 23.2578 7.65701 23.1838 7.52555 23.1216C4.94888 21.9092 2.96488 20.0792 1.5785 17.6529C0.999511 16.64 0.592524 15.5526 0.325216 14.419C0.137881 13.6237 0.0190165 12.8199 0.000392572 12.0038C-0.012206 11.4612 0.278656 11.1617 0.84066 11.1564C1.05374 11.1542 1.09592 11.0899 1.08058 10.8904C0.929397 8.86037 1.65792 7.20326 3.34996 5.97972C3.58331 5.81108 3.66602 5.66586 3.63096 5.37753C3.52908 4.53913 3.91196 3.9763 4.72594 3.66403C4.99544 3.5603 5.26001 3.44273 5.52348 3.32463C5.84228 3.18153 6.00606 2.90863 6.13478 2.61072C6.2783 2.27877 6.40538 1.93884 6.60969 1.63508C6.94931 1.13023 7.4516 0.957872 8.04319 0.992451C8.31542 1.00841 8.58766 1.04884 8.85661 1.09619C9.337 1.18024 9.7292 1.01001 10.0896 0.7254C10.3504 0.519525 10.6171 0.318971 10.9167 0.169486C11.5313 -0.136932 12.0999 -0.00181073 12.6345 0.366316C12.8416 0.508886 13.0525 0.647731 13.2453 0.806792C13.6106 1.10789 14.0215 1.14566 14.4761 1.07863C14.8332 1.02543 15.1898 0.954149 15.5618 1.00415C16.2016 1.0898 16.5735 1.46857 16.8194 2.00693C16.9115 2.20855 17.0035 2.40963 17.0867 2.61445C17.159 2.79372 17.2407 2.83575 17.4214 2.7102C18.1291 2.21706 18.8697 1.77339 19.6251 1.3526C20.0101 1.13768 20.3985 0.928083 20.7891 0.72274C21.0651 0.578043 21.3248 0.695609 21.4157 0.995112C21.8829 2.53092 22.2604 4.08642 22.4992 5.67224C22.5556 6.04888 22.6087 6.42605 22.6493 6.80428C22.6673 6.97026 22.7402 6.99686 22.8843 6.94472C23.9464 6.55904 25.0424 6.31168 26.1681 6.1824C26.5992 6.13293 26.7575 6.29359 26.7054 6.70906C26.545 7.99644 26.2032 9.23594 25.6926 10.4329C25.6198 10.6037 25.5426 10.7744 25.4494 10.9356C25.3689 11.0745 25.3711 11.1362 25.5562 11.1548C26.2355 11.2229 26.4436 11.4484 26.4173 12.1129C26.3582 13.612 26.0142 15.0494 25.4281 16.4373C24.5834 18.437 23.2792 20.1037 21.574 21.4783C20.7622 22.1326 19.8639 22.6646 18.9179 23.1157C18.77 23.1865 18.6955 23.2604 18.6659 23.42C18.5547 24.0211 18.0716 24.4031 17.4357 24.4042C16.0208 24.4063 14.6059 24.4042 13.1911 24.4042ZM13.2256 11.89C9.20006 11.89 5.17455 11.89 1.14905 11.89C0.757948 11.89 0.744802 11.899 0.777667 12.2815C0.876812 13.4407 1.10139 14.5706 1.52043 15.6686C2.2254 17.5145 3.316 19.0988 4.80755 20.4271C5.78531 21.298 6.86714 22.0161 8.0892 22.5268C8.35267 22.6369 8.51371 22.796 8.50495 23.1045C8.4929 23.5253 8.61943 23.6333 9.06148 23.6339C11.8271 23.6349 14.5933 23.6349 17.359 23.6339C17.7808 23.6339 17.9254 23.503 17.9182 23.0944C17.9133 22.8306 17.996 22.6508 18.2666 22.5688C18.3608 22.5401 18.4501 22.4933 18.54 22.4513C20.7557 21.4129 22.509 19.8717 23.822 17.8555C24.1333 17.3772 24.2806 17.0294 24.5621 16.4628C24.842 15.8979 25.0676 15.3127 25.2183 14.702C25.2999 14.3706 25.2977 14.3695 24.951 14.3695C18.9175 14.3695 12.8835 14.3965 6.85016 14.3668C6.62393 14.3658 6.49521 14.2487 6.48535 14.0274C6.47494 13.8035 6.60312 13.6811 6.82113 13.6513C6.9378 13.6354 7.05776 13.6428 7.17663 13.6428C13.0185 13.6428 18.8609 13.6428 24.7028 13.6428C24.8852 13.6428 25.0682 13.638 25.2506 13.6439C25.4341 13.6497 25.5119 13.5673 25.5278 13.3933C25.5601 13.0406 25.611 12.689 25.6428 12.3363C25.6828 11.8916 25.6784 11.8905 25.2216 11.8905C21.2234 11.8905 17.2253 11.8905 13.2272 11.8905L13.2256 11.89ZM11.0449 1.02437C10.7979 1.12172 10.6544 1.25365 10.507 1.37175C9.86011 1.88936 9.11844 1.93671 8.34446 1.77126C7.93528 1.68349 7.48995 1.75264 7.30754 1.9899C7.1706 2.16758 7.0857 2.37346 6.99039 2.57295C6.94273 2.67243 6.94821 2.73946 7.06105 2.81394C7.35191 3.00598 7.3678 3.2193 7.11966 3.46773C6.86769 3.71989 6.60641 3.9646 6.34512 4.20771C6.15779 4.3822 5.95566 4.39443 5.76997 4.22527C5.67247 4.13643 5.59305 4.12259 5.47911 4.17473C5.33998 4.23856 5.18934 4.28006 5.05514 4.35188C4.84425 4.46466 4.5994 4.53541 4.47561 4.76841C4.39728 4.91577 4.32059 5.08813 4.4181 5.219C4.52053 5.35678 4.70293 5.27485 4.84864 5.22751C5.29999 5.08121 5.76395 4.99291 6.23667 4.96152C7.15252 4.90034 8.0284 5.07855 8.86428 5.43445C8.99848 5.49137 9.08065 5.48232 9.17048 5.38816C9.314 5.23815 9.48983 5.2158 9.66237 5.3105C9.84752 5.4121 9.88805 5.59723 9.81136 5.77332C9.74728 5.9212 9.81136 5.9744 9.91599 6.04994C10.5377 6.4952 11.0263 7.05591 11.4037 7.70864C11.5007 7.87674 11.5626 8.10443 11.8041 7.8294C11.8441 7.78418 11.9394 7.7645 12.0079 7.76716C12.1492 7.77301 12.221 7.70226 12.2829 7.59427C12.9572 6.41222 13.9042 5.45732 14.934 4.56679C15.4139 4.15185 15.949 3.80022 16.3988 3.3507C16.4798 3.26984 16.516 3.20813 16.4639 3.09854C16.3423 2.84266 16.2311 2.58253 16.1161 2.32399C15.9304 1.90745 15.6374 1.6654 15.1378 1.74626C14.9855 1.77073 14.8289 1.77233 14.6766 1.79733C13.987 1.91117 13.3346 1.86064 12.7638 1.41431C12.5798 1.27068 12.3908 1.13236 12.2013 0.995644C12.1257 0.940851 12.0227 0.881268 12.0008 1.03235C11.9487 1.38984 11.6431 1.55156 11.4103 1.76275C11.2618 1.89734 11.0625 1.88564 10.914 1.74679C10.7672 1.61008 10.7475 1.43771 10.8707 1.26589C10.9151 1.20365 10.96 1.14194 11.046 1.02331L11.0449 1.02437ZM17.812 11.1521C18.0431 11.1819 18.2737 11.1734 18.4353 10.8095C19.0779 9.36521 20.1394 8.27147 21.5603 7.51447C21.9804 7.29051 21.9574 7.38467 21.8972 6.88621C21.7197 5.42061 21.4283 3.97471 21.0531 2.54422C21.0312 2.4607 21.0383 2.33729 20.9326 2.32718C20.8176 2.31654 20.8247 2.4506 20.7934 2.52348C20.2758 3.73532 19.7669 4.95088 19.2493 6.16272C18.6166 7.64374 17.9747 9.12104 17.3442 10.6031C17.113 11.1473 17.1229 11.1516 17.8114 11.1516L17.812 11.1521ZM23.3416 11.1521C23.6429 11.1521 23.9442 11.1463 24.2454 11.1548C24.395 11.159 24.4804 11.0952 24.5495 10.976C25.2232 9.80622 25.6012 8.54012 25.8509 7.23146C25.8844 7.05538 25.8422 6.97718 25.6499 7.01016C25.5782 7.02239 25.5053 7.02771 25.4341 7.04261C24.5265 7.2304 23.6341 7.46127 22.7687 7.79589C21.1824 8.40978 20.0112 9.45618 19.2153 10.9143C19.1047 11.1175 19.1814 11.1564 19.3791 11.1542C19.8447 11.1484 20.3103 11.1441 20.7754 11.1564C20.955 11.1612 21.0881 11.1074 21.2097 10.9877C21.6091 10.5941 22.0111 10.2025 22.4137 9.81207C22.778 9.45884 23.1346 9.09763 23.5136 8.76036C23.7344 8.56353 24.0159 8.62949 24.1156 8.87154C24.1978 9.07156 24.1178 9.22903 23.9699 9.37213C23.4287 9.89453 22.8903 10.4196 22.3529 10.9457C22.3118 10.9856 22.2286 11.0058 22.2543 11.0877C22.285 11.1856 22.3748 11.1495 22.44 11.1505C22.7413 11.1548 23.0426 11.1526 23.3438 11.1526L23.3416 11.1521ZM13.8045 10.7595C13.8396 10.8196 13.8018 10.8659 13.7399 10.8766C13.6194 10.8973 13.5926 10.976 13.6134 11.0713C13.6419 11.1995 13.758 11.1548 13.8396 11.1548C14.4224 11.1569 15.0058 11.1527 15.5886 11.1521C16.2525 11.1511 16.2394 11.1457 16.5291 10.543C16.6266 10.3403 16.648 10.1914 16.5439 9.98177C16.3401 9.57056 16.184 9.137 16.0049 8.71408C15.6155 7.79429 15.2233 6.87557 14.8338 5.95578C14.7763 5.8196 14.6996 5.80949 14.5988 5.91056C13.9103 6.6016 13.2749 7.33147 12.8295 8.20019C12.7753 8.30605 12.7786 8.39276 12.8284 8.49969C12.9988 8.86835 13.156 9.24286 13.3231 9.61311C13.495 9.99408 13.5911 10.3925 13.8045 10.7595ZM1.86717 10.2956C1.86717 10.4994 1.85731 10.7037 1.86991 10.9069C1.88524 11.1537 1.97234 11.1819 2.38425 11.1548C2.63075 11.1388 2.54037 10.9803 2.53051 10.867C2.45601 10.0488 2.53763 9.25616 2.93969 8.51937C3.5236 7.4501 4.41152 6.74843 5.63248 6.47073C6.71924 6.22337 7.76328 6.35583 8.70598 6.93887C10.1822 7.85228 10.8017 9.18274 10.6188 10.8702C10.6067 10.9835 10.5355 11.1617 10.7453 11.142C10.9233 11.125 11.1917 11.3117 11.2657 10.9548C11.4568 10.0275 11.2744 9.14231 10.857 8.32467C9.67716 6.01217 6.99039 5.09345 4.66021 6.11538C2.84437 6.91174 1.91756 8.3502 1.86717 10.2956ZM18.6227 5.65415C18.6166 5.62277 18.6166 5.60415 18.6101 5.58819C18.3252 4.92215 18.0404 4.25612 17.7539 3.59062C17.7063 3.47944 17.6257 3.4789 17.5348 3.54327C16.8326 4.0412 16.1353 4.54498 15.4829 5.10515C15.3816 5.1924 15.3706 5.27166 15.4221 5.38338C15.5108 5.57595 15.5914 5.77225 15.6746 5.96749C16.1112 6.99101 16.5483 8.01453 16.9838 9.03805C17.0057 9.09018 17.0303 9.14072 17.0911 9.14338C17.1695 9.14657 17.1547 9.07156 17.1738 9.02741C17.6071 8.01985 18.0393 7.01229 18.4715 6.00419C18.5235 5.88343 18.575 5.76214 18.6221 5.65256L18.6227 5.65415ZM8.87798 9.94188V9.94081C9.14255 9.94081 9.40657 9.94241 9.67114 9.94028C9.78343 9.93921 9.87819 9.9073 9.84478 9.76898C9.73687 9.32053 9.58295 8.89282 9.31071 8.50714C9.20335 8.35499 9.12392 8.37893 9.01601 8.48426C8.6649 8.82739 8.31433 9.17051 7.96267 9.5131C7.88269 9.5913 7.81696 9.66578 7.87941 9.78973C7.93528 9.90038 8.01854 9.94453 8.14014 9.94347C8.38609 9.94134 8.63203 9.94294 8.87852 9.94294L8.87798 9.94188ZM6.96245 8.0906C6.96245 8.33797 6.96902 8.58534 6.95971 8.83217C6.95478 8.96623 7.03859 9.0173 7.13828 9.06731C7.23633 9.11572 7.31192 9.08061 7.38204 9.01251C7.76054 8.64439 8.13905 8.27626 8.51919 7.90973C8.59424 7.83738 8.59971 7.77407 8.51152 7.71449C8.10454 7.44265 7.66687 7.23997 7.17389 7.16549C7.02928 7.14368 6.95369 7.1889 6.95971 7.34849C6.96957 7.59533 6.96245 7.84323 6.96245 8.0906ZM20.1569 1.98512C20.1175 1.9782 20.0956 1.96703 20.0846 1.97341C19.5506 2.28675 19.0165 2.59955 18.4852 2.91767C18.3795 2.98098 18.3663 3.05758 18.426 3.18472C18.6134 3.58477 18.7744 3.99652 18.9453 4.40401C18.9678 4.45827 18.9595 4.54019 19.0494 4.53541C19.1337 4.53062 19.1272 4.45082 19.1507 4.39656C19.3583 3.91832 19.5769 3.44379 19.7708 2.96023C19.9 2.63732 20.0764 2.32984 20.1569 1.98512ZM4.2713 9.9424C4.2713 9.9424 4.2713 9.93975 4.2713 9.93815C4.53532 9.93815 4.79989 9.93815 5.06391 9.93815C5.19482 9.93815 5.25124 9.85516 5.2978 9.75089C5.34655 9.64184 5.27699 9.59662 5.20906 9.53119C4.85138 9.1854 4.50136 8.83324 4.14641 8.48532C4.06753 8.40819 3.97331 8.32626 3.88019 8.46458C3.62658 8.84228 3.41788 9.2386 3.3401 9.69078C3.30888 9.87059 3.35818 9.95517 3.56085 9.9456C3.79748 9.93443 4.03466 9.9424 4.2713 9.9424ZM6.16874 8.07836C6.16874 7.84802 6.15395 7.61714 6.17258 7.38839C6.1912 7.15805 6.06905 7.1357 5.89267 7.17507C5.46487 7.27082 5.07048 7.44265 4.70074 7.67194C4.56709 7.75492 4.5638 7.84004 4.67554 7.9459C5.04528 8.29754 5.41447 8.64917 5.77709 9.00666C5.85214 9.08061 5.91677 9.10614 6.01592 9.06837C6.12218 9.02794 6.17258 8.96304 6.16984 8.84813C6.16436 8.59172 6.1682 8.33478 6.16874 8.07836ZM5.95293 10.3313C5.95676 10.6739 6.2531 10.9574 6.59545 10.9462C6.93561 10.9351 7.23031 10.6318 7.2199 10.3026C7.20949 9.97113 6.92849 9.71206 6.58011 9.71153C6.21037 9.71153 5.94909 9.97007 5.95293 10.3313ZM12.5759 11.1511C12.5759 11.1479 12.5759 11.1441 12.5759 11.1409C12.6762 11.1409 12.7759 11.1388 12.8761 11.1409C13.0223 11.1447 13.0799 11.0963 13.0185 10.9494C12.8405 10.5255 12.6685 10.0999 12.4927 9.67535C12.4702 9.62056 12.4631 9.54343 12.3793 9.54555C12.2955 9.54715 12.2851 9.62162 12.2746 9.67961C12.1985 10.0961 12.089 10.5079 12.0988 10.9361C12.1027 11.0957 12.17 11.1617 12.3305 11.1511C12.4121 11.1457 12.4943 11.15 12.5759 11.15V11.1511ZM8.89989 10.692C8.63532 10.692 8.37075 10.693 8.10618 10.692C7.92432 10.6909 7.87119 10.8228 7.86023 10.9532C7.85092 11.0702 7.94623 11.1473 8.07222 11.1484C8.59204 11.1521 9.11242 11.1558 9.63224 11.1473C9.83601 11.1441 9.8278 10.9574 9.84368 10.8319C9.8645 10.6701 9.7166 10.6936 9.61143 10.6925C9.37425 10.6898 9.13707 10.6914 8.89989 10.692ZM4.28116 11.1511C4.50848 11.1511 4.73635 11.1511 4.96367 11.1511C5.12307 11.1511 5.3104 11.1516 5.30547 10.9473C5.30164 10.7734 5.17675 10.6808 4.96969 10.6872C4.50574 10.7005 4.04123 10.6914 3.57728 10.692C3.44801 10.692 3.3149 10.6765 3.33298 10.8776C3.34722 11.0335 3.36256 11.159 3.57125 11.1526C3.80789 11.1457 4.04452 11.1505 4.28116 11.1511Z" fill="#2F438F"/>
<path d="M17.3201 21.1339C17.1453 21.1169 17.0007 21.0594 16.9668 20.8674C16.9306 20.6642 16.981 20.5072 17.1963 20.4147C18.0563 20.046 18.8489 19.5699 19.5725 18.9868C20.0074 18.6363 20.4111 18.2538 20.777 17.834C20.9682 17.6149 21.2218 17.5707 21.4003 17.7138C21.5685 17.8489 21.5592 18.1298 21.3713 18.3341C20.3262 19.4693 19.1184 20.3955 17.6854 21.0302C17.572 21.0802 17.4548 21.1408 17.3195 21.1334L17.3201 21.1339Z" fill="#2F438F"/>
<path d="M4.06192 14.3695C3.6878 14.3695 3.31422 14.3732 2.9401 14.3679C2.70511 14.3647 2.55119 14.2216 2.54791 14.02C2.54462 13.8141 2.69306 13.6514 2.9275 13.6487C3.69328 13.6407 4.4596 13.6428 5.22591 13.6471C5.46364 13.6487 5.59675 13.7902 5.62195 14.0083C5.64386 14.1988 5.44557 14.3658 5.21058 14.3685C4.82769 14.3727 4.44426 14.3695 4.06137 14.3695H4.06192Z" fill="#2F438F"/>
<path d="M8.60348 4.33883C8.44627 4.33244 8.32631 4.27286 8.25839 4.12551C8.18608 3.96911 8.21895 3.81696 8.32576 3.70578C8.59471 3.42489 8.87736 3.15518 9.16548 2.89292C9.34131 2.73226 9.62231 2.74237 9.75651 2.89239C9.8814 3.03123 9.86278 3.28658 9.70393 3.44564C9.43991 3.71003 9.16877 3.96804 8.90036 4.22818C8.81875 4.30744 8.71796 4.33989 8.60402 4.33883H8.60348Z" fill="#2F438F"/>
<path d="M13.7354 4.34053C13.5837 4.34213 13.4571 4.27563 13.4029 4.14743C13.3448 4.00912 13.3278 3.84952 13.4527 3.72504C13.7381 3.4415 14.0219 3.15636 14.3187 2.88505C14.4891 2.72971 14.746 2.74461 14.8868 2.89463C15.0517 3.07071 15.0336 3.24466 14.8676 3.40958C14.5839 3.69152 14.2996 3.97294 14.012 4.25116C13.9386 4.32192 13.8378 4.3416 13.7354 4.34107V4.34053Z" fill="#2F438F"/>
<path d="M11.1863 4.34193C10.8647 4.3382 10.6785 4.0238 10.8669 3.77484C11.1342 3.42161 11.4673 3.11945 11.8195 2.84495C11.992 2.71036 12.2013 2.75345 12.3317 2.91464C12.4505 3.06146 12.4522 3.2535 12.3086 3.40033C12.0276 3.68866 11.7357 3.96635 11.447 4.24723C11.372 4.32065 11.2723 4.33554 11.1868 4.34246L11.1863 4.34193Z" fill="#2F438F"/>
<path d="M12.4079 5.5781C12.3964 5.73238 12.3898 5.82334 12.3076 5.90101C12.0299 6.16381 11.7648 6.4399 11.4827 6.69844C11.2674 6.89581 11.0735 6.89687 10.9114 6.72983C10.752 6.56545 10.7547 6.35106 10.9421 6.16062C11.211 5.88665 11.4931 5.62438 11.7681 5.35574C11.8968 5.23019 12.0628 5.23179 12.1992 5.2919C12.3262 5.34776 12.438 5.4632 12.4079 5.5781Z" fill="#2F438F"/>
</svg>
