<svg width="12" height="29" viewBox="0 0 12 29" fill="none" xmlns="http://www.w3.org/2000/svg">
<mask id="path-1-outside-1_652_4686" maskUnits="userSpaceOnUse" x="0" y="0" width="12" height="29" fill="black">
<rect fill="white" width="12" height="29"/>
<path d="M3.7144 24.9376C3.7144 23.9628 3.7144 22.9889 3.7144 22.0141C3.7144 21.6613 3.63743 21.5576 3.29848 21.4508C1.88125 21.0038 0.987991 19.7759 1.00432 18.2805C1.00898 17.8082 1.11782 17.3532 1.33472 16.9339C1.46999 16.672 1.45988 16.4394 1.29352 16.1965C1.11549 15.937 1.03308 15.6403 1.03852 15.3223C1.04707 14.8436 1.02453 14.3602 1.08361 13.8871C1.11627 13.6283 1.2632 13.3688 1.40935 13.1441C1.5524 12.9242 1.57727 12.7422 1.45444 12.5096C0.868269 11.3956 0.820846 10.2753 1.47854 9.17474C1.89602 8.47771 2.52417 8.04255 3.2806 7.79254C3.66153 7.66674 3.7144 7.59474 3.71518 7.1857C3.71518 6.57965 3.7144 5.97439 3.71673 5.36834C3.71673 5.2908 3.71751 5.20377 3.75249 5.13969C3.7797 5.08984 3.86677 5.03525 3.91342 5.04554C3.97095 5.05899 4.01837 5.13415 4.05957 5.19032C4.07512 5.21169 4.06268 5.25441 4.06268 5.28685C4.06268 6.10968 4.05957 6.93252 4.06501 7.75614C4.06579 7.92071 4.02537 8.00062 3.84734 8.03069C2.6229 8.23481 1.79806 8.93027 1.45677 10.1534C0.94912 11.9716 2.41222 13.8166 4.26714 13.7312C4.8471 13.7043 5.36952 13.5239 5.8282 13.1687C6.01322 13.0255 6.16482 13.027 6.34907 13.1631C6.77976 13.4804 7.25243 13.6916 7.79196 13.732C8.29417 13.77 8.7684 13.6655 9.22241 13.4582C9.41676 13.3696 9.5085 13.1837 9.48829 12.9756C9.47041 12.7921 9.45253 12.6093 9.43542 12.4257C9.38878 11.921 9.56447 11.7081 10.0628 11.663C10.1981 11.6504 10.3333 11.6417 10.4671 11.6211C10.6466 11.5942 10.7547 11.489 10.7842 11.3015C10.9444 10.2982 10.5533 9.05923 9.45563 8.43577C9.10813 8.23877 8.69998 8.14699 8.31283 8.03069C8.17445 7.98954 8.11536 7.92625 8.10915 7.79333C8.10526 7.70155 8.10448 7.60898 8.10448 7.51721C8.10526 5.68007 8.10681 3.84293 8.10759 2.00659C8.10759 1.91481 8.10759 1.82224 8.10059 1.73046C8.0866 1.53267 7.97154 1.40608 7.77563 1.37918C7.68001 1.36573 7.58283 1.36177 7.48566 1.36177C6.55431 1.36019 5.62374 1.36019 4.69239 1.36177C4.60843 1.36177 4.52447 1.36573 4.44128 1.37601C4.17929 1.40766 4.06501 1.53346 4.06346 1.80246C4.06035 2.36183 4.06346 2.92199 4.0619 3.48136C4.0619 3.54624 4.06735 3.61982 4.04014 3.67362C4.01448 3.72425 3.94762 3.78755 3.90253 3.78438C3.84734 3.78122 3.77815 3.72584 3.74627 3.67362C3.71518 3.62298 3.71673 3.54782 3.71673 3.48373C3.71518 2.75268 3.71518 2.02241 3.71595 1.29135C3.71595 1.05321 3.76182 1.00257 4.00127 1.00178C5.39129 0.999407 6.78131 0.999407 8.17134 1.00178C8.431 1.00178 8.46209 1.03976 8.46209 1.34357C8.46209 3.24005 8.45976 5.13573 8.45898 7.03221C8.45898 7.105 8.45587 7.177 8.46054 7.24978C8.47842 7.55914 8.57326 7.68731 8.86324 7.77672C10.1343 8.16914 10.8783 9.04657 11.1434 10.3568C11.2274 10.7729 11.204 11.1939 11.1069 11.6076C11.0447 11.8719 10.8775 12.0017 10.6047 12.0135C10.5145 12.0175 10.4181 11.9953 10.3349 12.0206C10.2533 12.0452 10.1374 12.1037 10.1219 12.1686C10.1024 12.2477 10.146 12.3791 10.2082 12.436C10.408 12.6204 10.6428 12.7652 10.8387 12.9535C11.1644 13.2676 11.3595 13.6631 11.3642 14.1236C11.3689 14.6411 11.3696 15.164 11.3059 15.6751C11.2748 15.9267 11.1209 16.1767 10.9747 16.3943C10.8317 16.6072 10.7943 16.7891 10.8931 17.0312C11.3681 18.1959 11.2763 19.3059 10.5207 20.3234C10.0986 20.8922 9.52405 21.249 8.85702 21.454C8.53362 21.5529 8.46987 21.6383 8.46987 21.9872C8.46987 22.0331 8.47764 22.0901 8.4551 22.1225C8.41234 22.1842 8.35015 22.2728 8.29495 22.2736C8.23586 22.2736 8.1278 22.1898 8.12392 22.1368C8.10604 21.882 8.10526 21.6241 8.12081 21.3685C8.13091 21.2047 8.28173 21.2047 8.40145 21.185C9.00395 21.0876 9.54815 20.8558 9.97495 20.4033C10.7718 19.5583 11.0408 18.5582 10.6739 17.4426C10.3061 16.3255 9.50072 15.6965 8.35947 15.5232C7.62637 15.4125 6.96556 15.6158 6.36695 16.047C6.10107 16.2385 6.09796 16.2448 5.83286 16.0525C4.19951 14.865 2.47208 15.7274 1.81128 16.7844C0.760985 18.4633 1.61304 20.7118 3.59934 21.1454C4.13576 21.2625 4.06346 21.1604 4.06424 21.7253C4.06657 23.5886 4.06424 25.4518 4.06501 27.3151C4.06501 27.7328 4.18707 27.8618 4.58977 27.8626C5.6113 27.8634 6.63283 27.8634 7.65436 27.8626C7.99098 27.8626 8.10759 27.7471 8.10759 27.3997C8.10915 26.2343 8.10681 25.0689 8.10604 23.9035C8.10604 23.8378 8.08738 23.7563 8.1177 23.7104C8.16512 23.6384 8.2483 23.591 8.31594 23.5332C8.36414 23.5941 8.42478 23.6487 8.45665 23.7176C8.47997 23.7666 8.46676 23.8339 8.46676 23.8932C8.46598 25.2232 8.46443 26.5532 8.46287 27.8832C8.46287 28.2052 8.45354 28.2139 8.13791 28.2139C6.7611 28.2139 5.38352 28.2139 4.00671 28.2139C3.74549 28.2139 3.71829 28.1878 3.71829 27.9203C3.71751 26.9258 3.71829 25.9321 3.71829 24.9376H3.7144ZM11.0385 14.7645C11.0307 14.7645 11.0237 14.7637 11.0159 14.7629C11.0159 14.6118 11.0159 14.4599 11.0159 14.3088C11.0175 13.6853 10.7306 13.2304 10.216 12.9186C10.1444 12.8751 10.0193 12.8506 9.95551 12.8862C9.89254 12.921 9.84046 13.0436 9.84357 13.1259C9.85445 13.4392 9.7083 13.6355 9.4432 13.7597C8.45432 14.2225 7.46933 14.2383 6.50844 13.6924C6.2068 13.5207 5.96114 13.5326 5.66339 13.7019C5.01191 14.073 4.30912 14.1845 3.56902 14.0382C3.05126 13.9361 2.5988 13.7035 2.18133 13.3815C1.89446 13.1607 1.68767 13.2177 1.57261 13.5658C1.47466 13.8617 1.40313 14.1719 1.36582 14.4812C1.30906 14.9496 1.39847 15.4117 1.52208 15.8619C1.59049 16.1103 1.80195 16.1609 2.00719 16.0019C2.05305 15.9663 2.09892 15.9291 2.14324 15.8911C3.14611 15.0311 4.49959 14.8776 5.64706 15.5272C5.97047 15.7099 6.2208 15.6941 6.54187 15.5216C7.57895 14.9631 8.62535 14.9884 9.63833 15.5976C9.89721 15.7535 10.1196 15.971 10.3574 16.1625C10.509 16.2843 10.628 16.2836 10.7314 16.1174C10.8301 15.9584 10.9312 15.7859 10.9662 15.6055C11.0198 15.331 11.0175 15.0454 11.0392 14.7645H11.0385Z"/>
</mask>
<path d="M3.7144 24.9376C3.7144 23.9628 3.7144 22.9889 3.7144 22.0141C3.7144 21.6613 3.63743 21.5576 3.29848 21.4508C1.88125 21.0038 0.987991 19.7759 1.00432 18.2805C1.00898 17.8082 1.11782 17.3532 1.33472 16.9339C1.46999 16.672 1.45988 16.4394 1.29352 16.1965C1.11549 15.937 1.03308 15.6403 1.03852 15.3223C1.04707 14.8436 1.02453 14.3602 1.08361 13.8871C1.11627 13.6283 1.2632 13.3688 1.40935 13.1441C1.5524 12.9242 1.57727 12.7422 1.45444 12.5096C0.868269 11.3956 0.820846 10.2753 1.47854 9.17474C1.89602 8.47771 2.52417 8.04255 3.2806 7.79254C3.66153 7.66674 3.7144 7.59474 3.71518 7.1857C3.71518 6.57965 3.7144 5.97439 3.71673 5.36834C3.71673 5.2908 3.71751 5.20377 3.75249 5.13969C3.7797 5.08984 3.86677 5.03525 3.91342 5.04554C3.97095 5.05899 4.01837 5.13415 4.05957 5.19032C4.07512 5.21169 4.06268 5.25441 4.06268 5.28685C4.06268 6.10968 4.05957 6.93252 4.06501 7.75614C4.06579 7.92071 4.02537 8.00062 3.84734 8.03069C2.6229 8.23481 1.79806 8.93027 1.45677 10.1534C0.94912 11.9716 2.41222 13.8166 4.26714 13.7312C4.8471 13.7043 5.36952 13.5239 5.8282 13.1687C6.01322 13.0255 6.16482 13.027 6.34907 13.1631C6.77976 13.4804 7.25243 13.6916 7.79196 13.732C8.29417 13.77 8.7684 13.6655 9.22241 13.4582C9.41676 13.3696 9.5085 13.1837 9.48829 12.9756C9.47041 12.7921 9.45253 12.6093 9.43542 12.4257C9.38878 11.921 9.56447 11.7081 10.0628 11.663C10.1981 11.6504 10.3333 11.6417 10.4671 11.6211C10.6466 11.5942 10.7547 11.489 10.7842 11.3015C10.9444 10.2982 10.5533 9.05923 9.45563 8.43577C9.10813 8.23877 8.69998 8.14699 8.31283 8.03069C8.17445 7.98954 8.11536 7.92625 8.10915 7.79333C8.10526 7.70155 8.10448 7.60898 8.10448 7.51721C8.10526 5.68007 8.10681 3.84293 8.10759 2.00659C8.10759 1.91481 8.10759 1.82224 8.10059 1.73046C8.0866 1.53267 7.97154 1.40608 7.77563 1.37918C7.68001 1.36573 7.58283 1.36177 7.48566 1.36177C6.55431 1.36019 5.62374 1.36019 4.69239 1.36177C4.60843 1.36177 4.52447 1.36573 4.44128 1.37601C4.17929 1.40766 4.06501 1.53346 4.06346 1.80246C4.06035 2.36183 4.06346 2.92199 4.0619 3.48136C4.0619 3.54624 4.06735 3.61982 4.04014 3.67362C4.01448 3.72425 3.94762 3.78755 3.90253 3.78438C3.84734 3.78122 3.77815 3.72584 3.74627 3.67362C3.71518 3.62298 3.71673 3.54782 3.71673 3.48373C3.71518 2.75268 3.71518 2.02241 3.71595 1.29135C3.71595 1.05321 3.76182 1.00257 4.00127 1.00178C5.39129 0.999407 6.78131 0.999407 8.17134 1.00178C8.431 1.00178 8.46209 1.03976 8.46209 1.34357C8.46209 3.24005 8.45976 5.13573 8.45898 7.03221C8.45898 7.105 8.45587 7.177 8.46054 7.24978C8.47842 7.55914 8.57326 7.68731 8.86324 7.77672C10.1343 8.16914 10.8783 9.04657 11.1434 10.3568C11.2274 10.7729 11.204 11.1939 11.1069 11.6076C11.0447 11.8719 10.8775 12.0017 10.6047 12.0135C10.5145 12.0175 10.4181 11.9953 10.3349 12.0206C10.2533 12.0452 10.1374 12.1037 10.1219 12.1686C10.1024 12.2477 10.146 12.3791 10.2082 12.436C10.408 12.6204 10.6428 12.7652 10.8387 12.9535C11.1644 13.2676 11.3595 13.6631 11.3642 14.1236C11.3689 14.6411 11.3696 15.164 11.3059 15.6751C11.2748 15.9267 11.1209 16.1767 10.9747 16.3943C10.8317 16.6072 10.7943 16.7891 10.8931 17.0312C11.3681 18.1959 11.2763 19.3059 10.5207 20.3234C10.0986 20.8922 9.52405 21.249 8.85702 21.454C8.53362 21.5529 8.46987 21.6383 8.46987 21.9872C8.46987 22.0331 8.47764 22.0901 8.4551 22.1225C8.41234 22.1842 8.35015 22.2728 8.29495 22.2736C8.23586 22.2736 8.1278 22.1898 8.12392 22.1368C8.10604 21.882 8.10526 21.6241 8.12081 21.3685C8.13091 21.2047 8.28173 21.2047 8.40145 21.185C9.00395 21.0876 9.54815 20.8558 9.97495 20.4033C10.7718 19.5583 11.0408 18.5582 10.6739 17.4426C10.3061 16.3255 9.50072 15.6965 8.35947 15.5232C7.62637 15.4125 6.96556 15.6158 6.36695 16.047C6.10107 16.2385 6.09796 16.2448 5.83286 16.0525C4.19951 14.865 2.47208 15.7274 1.81128 16.7844C0.760985 18.4633 1.61304 20.7118 3.59934 21.1454C4.13576 21.2625 4.06346 21.1604 4.06424 21.7253C4.06657 23.5886 4.06424 25.4518 4.06501 27.3151C4.06501 27.7328 4.18707 27.8618 4.58977 27.8626C5.6113 27.8634 6.63283 27.8634 7.65436 27.8626C7.99098 27.8626 8.10759 27.7471 8.10759 27.3997C8.10915 26.2343 8.10681 25.0689 8.10604 23.9035C8.10604 23.8378 8.08738 23.7563 8.1177 23.7104C8.16512 23.6384 8.2483 23.591 8.31594 23.5332C8.36414 23.5941 8.42478 23.6487 8.45665 23.7176C8.47997 23.7666 8.46676 23.8339 8.46676 23.8932C8.46598 25.2232 8.46443 26.5532 8.46287 27.8832C8.46287 28.2052 8.45354 28.2139 8.13791 28.2139C6.7611 28.2139 5.38352 28.2139 4.00671 28.2139C3.74549 28.2139 3.71829 28.1878 3.71829 27.9203C3.71751 26.9258 3.71829 25.9321 3.71829 24.9376H3.7144ZM11.0385 14.7645C11.0307 14.7645 11.0237 14.7637 11.0159 14.7629C11.0159 14.6118 11.0159 14.4599 11.0159 14.3088C11.0175 13.6853 10.7306 13.2304 10.216 12.9186C10.1444 12.8751 10.0193 12.8506 9.95551 12.8862C9.89254 12.921 9.84046 13.0436 9.84357 13.1259C9.85445 13.4392 9.7083 13.6355 9.4432 13.7597C8.45432 14.2225 7.46933 14.2383 6.50844 13.6924C6.2068 13.5207 5.96114 13.5326 5.66339 13.7019C5.01191 14.073 4.30912 14.1845 3.56902 14.0382C3.05126 13.9361 2.5988 13.7035 2.18133 13.3815C1.89446 13.1607 1.68767 13.2177 1.57261 13.5658C1.47466 13.8617 1.40313 14.1719 1.36582 14.4812C1.30906 14.9496 1.39847 15.4117 1.52208 15.8619C1.59049 16.1103 1.80195 16.1609 2.00719 16.0019C2.05305 15.9663 2.09892 15.9291 2.14324 15.8911C3.14611 15.0311 4.49959 14.8776 5.64706 15.5272C5.97047 15.7099 6.2208 15.6941 6.54187 15.5216C7.57895 14.9631 8.62535 14.9884 9.63833 15.5976C9.89721 15.7535 10.1196 15.971 10.3574 16.1625C10.509 16.2843 10.628 16.2836 10.7314 16.1174C10.8301 15.9584 10.9312 15.7859 10.9662 15.6055C11.0198 15.331 11.0175 15.0454 11.0392 14.7645H11.0385Z" fill="#2F438F"/>
<path d="M3.7144 24.9376C3.7144 23.9628 3.7144 22.9889 3.7144 22.0141C3.7144 21.6613 3.63743 21.5576 3.29848 21.4508C1.88125 21.0038 0.987991 19.7759 1.00432 18.2805C1.00898 17.8082 1.11782 17.3532 1.33472 16.9339C1.46999 16.672 1.45988 16.4394 1.29352 16.1965C1.11549 15.937 1.03308 15.6403 1.03852 15.3223C1.04707 14.8436 1.02453 14.3602 1.08361 13.8871C1.11627 13.6283 1.2632 13.3688 1.40935 13.1441C1.5524 12.9242 1.57727 12.7422 1.45444 12.5096C0.868269 11.3956 0.820846 10.2753 1.47854 9.17474C1.89602 8.47771 2.52417 8.04255 3.2806 7.79254C3.66153 7.66674 3.7144 7.59474 3.71518 7.1857C3.71518 6.57965 3.7144 5.97439 3.71673 5.36834C3.71673 5.2908 3.71751 5.20377 3.75249 5.13969C3.7797 5.08984 3.86677 5.03525 3.91342 5.04554C3.97095 5.05899 4.01837 5.13415 4.05957 5.19032C4.07512 5.21169 4.06268 5.25441 4.06268 5.28685C4.06268 6.10968 4.05957 6.93252 4.06501 7.75614C4.06579 7.92071 4.02537 8.00062 3.84734 8.03069C2.6229 8.23481 1.79806 8.93027 1.45677 10.1534C0.94912 11.9716 2.41222 13.8166 4.26714 13.7312C4.8471 13.7043 5.36952 13.5239 5.8282 13.1687C6.01322 13.0255 6.16482 13.027 6.34907 13.1631C6.77976 13.4804 7.25243 13.6916 7.79196 13.732C8.29417 13.77 8.7684 13.6655 9.22241 13.4582C9.41676 13.3696 9.5085 13.1837 9.48829 12.9756C9.47041 12.7921 9.45253 12.6093 9.43542 12.4257C9.38878 11.921 9.56447 11.7081 10.0628 11.663C10.1981 11.6504 10.3333 11.6417 10.4671 11.6211C10.6466 11.5942 10.7547 11.489 10.7842 11.3015C10.9444 10.2982 10.5533 9.05923 9.45563 8.43577C9.10813 8.23877 8.69998 8.14699 8.31283 8.03069C8.17445 7.98954 8.11536 7.92625 8.10915 7.79333C8.10526 7.70155 8.10448 7.60898 8.10448 7.51721C8.10526 5.68007 8.10681 3.84293 8.10759 2.00659C8.10759 1.91481 8.10759 1.82224 8.10059 1.73046C8.0866 1.53267 7.97154 1.40608 7.77563 1.37918C7.68001 1.36573 7.58283 1.36177 7.48566 1.36177C6.55431 1.36019 5.62374 1.36019 4.69239 1.36177C4.60843 1.36177 4.52447 1.36573 4.44128 1.37601C4.17929 1.40766 4.06501 1.53346 4.06346 1.80246C4.06035 2.36183 4.06346 2.92199 4.0619 3.48136C4.0619 3.54624 4.06735 3.61982 4.04014 3.67362C4.01448 3.72425 3.94762 3.78755 3.90253 3.78438C3.84734 3.78122 3.77815 3.72584 3.74627 3.67362C3.71518 3.62298 3.71673 3.54782 3.71673 3.48373C3.71518 2.75268 3.71518 2.02241 3.71595 1.29135C3.71595 1.05321 3.76182 1.00257 4.00127 1.00178C5.39129 0.999407 6.78131 0.999407 8.17134 1.00178C8.431 1.00178 8.46209 1.03976 8.46209 1.34357C8.46209 3.24005 8.45976 5.13573 8.45898 7.03221C8.45898 7.105 8.45587 7.177 8.46054 7.24978C8.47842 7.55914 8.57326 7.68731 8.86324 7.77672C10.1343 8.16914 10.8783 9.04657 11.1434 10.3568C11.2274 10.7729 11.204 11.1939 11.1069 11.6076C11.0447 11.8719 10.8775 12.0017 10.6047 12.0135C10.5145 12.0175 10.4181 11.9953 10.3349 12.0206C10.2533 12.0452 10.1374 12.1037 10.1219 12.1686C10.1024 12.2477 10.146 12.3791 10.2082 12.436C10.408 12.6204 10.6428 12.7652 10.8387 12.9535C11.1644 13.2676 11.3595 13.6631 11.3642 14.1236C11.3689 14.6411 11.3696 15.164 11.3059 15.6751C11.2748 15.9267 11.1209 16.1767 10.9747 16.3943C10.8317 16.6072 10.7943 16.7891 10.8931 17.0312C11.3681 18.1959 11.2763 19.3059 10.5207 20.3234C10.0986 20.8922 9.52405 21.249 8.85702 21.454C8.53362 21.5529 8.46987 21.6383 8.46987 21.9872C8.46987 22.0331 8.47764 22.0901 8.4551 22.1225C8.41234 22.1842 8.35015 22.2728 8.29495 22.2736C8.23586 22.2736 8.1278 22.1898 8.12392 22.1368C8.10604 21.882 8.10526 21.6241 8.12081 21.3685C8.13091 21.2047 8.28173 21.2047 8.40145 21.185C9.00395 21.0876 9.54815 20.8558 9.97495 20.4033C10.7718 19.5583 11.0408 18.5582 10.6739 17.4426C10.3061 16.3255 9.50072 15.6965 8.35947 15.5232C7.62637 15.4125 6.96556 15.6158 6.36695 16.047C6.10107 16.2385 6.09796 16.2448 5.83286 16.0525C4.19951 14.865 2.47208 15.7274 1.81128 16.7844C0.760985 18.4633 1.61304 20.7118 3.59934 21.1454C4.13576 21.2625 4.06346 21.1604 4.06424 21.7253C4.06657 23.5886 4.06424 25.4518 4.06501 27.3151C4.06501 27.7328 4.18707 27.8618 4.58977 27.8626C5.6113 27.8634 6.63283 27.8634 7.65436 27.8626C7.99098 27.8626 8.10759 27.7471 8.10759 27.3997C8.10915 26.2343 8.10681 25.0689 8.10604 23.9035C8.10604 23.8378 8.08738 23.7563 8.1177 23.7104C8.16512 23.6384 8.2483 23.591 8.31594 23.5332C8.36414 23.5941 8.42478 23.6487 8.45665 23.7176C8.47997 23.7666 8.46676 23.8339 8.46676 23.8932C8.46598 25.2232 8.46443 26.5532 8.46287 27.8832C8.46287 28.2052 8.45354 28.2139 8.13791 28.2139C6.7611 28.2139 5.38352 28.2139 4.00671 28.2139C3.74549 28.2139 3.71829 28.1878 3.71829 27.9203C3.71751 26.9258 3.71829 25.9321 3.71829 24.9376H3.7144ZM11.0385 14.7645C11.0307 14.7645 11.0237 14.7637 11.0159 14.7629C11.0159 14.6118 11.0159 14.4599 11.0159 14.3088C11.0175 13.6853 10.7306 13.2304 10.216 12.9186C10.1444 12.8751 10.0193 12.8506 9.95551 12.8862C9.89254 12.921 9.84046 13.0436 9.84357 13.1259C9.85445 13.4392 9.7083 13.6355 9.4432 13.7597C8.45432 14.2225 7.46933 14.2383 6.50844 13.6924C6.2068 13.5207 5.96114 13.5326 5.66339 13.7019C5.01191 14.073 4.30912 14.1845 3.56902 14.0382C3.05126 13.9361 2.5988 13.7035 2.18133 13.3815C1.89446 13.1607 1.68767 13.2177 1.57261 13.5658C1.47466 13.8617 1.40313 14.1719 1.36582 14.4812C1.30906 14.9496 1.39847 15.4117 1.52208 15.8619C1.59049 16.1103 1.80195 16.1609 2.00719 16.0019C2.05305 15.9663 2.09892 15.9291 2.14324 15.8911C3.14611 15.0311 4.49959 14.8776 5.64706 15.5272C5.97047 15.7099 6.2208 15.6941 6.54187 15.5216C7.57895 14.9631 8.62535 14.9884 9.63833 15.5976C9.89721 15.7535 10.1196 15.971 10.3574 16.1625C10.509 16.2843 10.628 16.2836 10.7314 16.1174C10.8301 15.9584 10.9312 15.7859 10.9662 15.6055C11.0198 15.331 11.0175 15.0454 11.0392 14.7645H11.0385Z" stroke="#2F438F" stroke-width="0.4" mask="url(#path-1-outside-1_652_4686)"/>
</svg>
