<svg width="28" height="28" viewBox="0 0 28 28" fill="none" xmlns="http://www.w3.org/2000/svg">
<mask id="path-1-inside-1_149_2129" fill="white">
<path d="M0 18.7038C0.12708 18.3542 0.227868 17.9912 0.387266 17.6578C0.809041 16.7723 1.49648 16.1573 2.40302 15.8599C3.84473 15.3868 5.4157 15.8464 6.42687 17.1764C7.065 16.5984 7.80667 16.2521 8.6913 16.2375C8.41742 15.6814 8.35881 15.1001 8.36922 14.4991C8.38291 13.7061 8.31444 12.9087 8.37799 12.1214C8.4596 11.1085 8.79045 10.1663 9.35574 9.31002C10.2201 8.00084 11.4159 7.20904 12.8954 6.83418C12.9638 6.81679 13.0389 6.82465 13.161 6.81735C12.2643 5.53847 12.0299 4.15858 12.5464 2.70798C12.8817 1.76635 13.5012 1.02169 14.377 0.528435C16.1211 -0.454156 18.3017 -0.0383365 19.5687 1.54189C20.7924 3.06824 20.7962 5.24217 19.5917 6.81567C19.7226 6.85102 19.8316 6.88076 19.9406 6.9105C21.384 7.305 22.4998 8.16133 23.3335 9.42225C23.3822 9.49576 23.4907 9.55918 23.5778 9.56872C24.2236 9.6411 24.7341 9.95872 25.1438 10.457C25.5053 10.897 25.6812 11.429 25.6839 11.9873C25.6877 12.7774 25.3996 13.466 24.7932 13.9845C24.6793 14.0816 24.5205 14.1276 24.418 14.2331C24.3342 14.3195 24.2603 14.4598 24.2581 14.5776C24.2438 15.3144 24.2625 16.0524 24.246 16.7892C24.2378 17.1528 24.1781 17.5153 24.1376 17.9188C24.5353 17.9188 24.957 17.9216 25.3783 17.9182C25.8575 17.9143 26.3127 18.0125 26.7318 18.2555C27.4181 18.6533 27.8059 19.2543 27.9407 20.0523C28.0897 20.9322 27.7753 21.6381 27.2795 22.2184C27.4986 22.7296 27.7205 23.2088 27.9056 23.7026C27.9774 23.8934 27.9845 24.1179 27.9867 24.3272C27.9955 25.1482 27.9681 25.9708 27.9982 26.7907C28.0179 27.3322 27.8804 27.7486 27.3891 28H0.546664C0.36426 27.8131 0.182404 27.6268 0 27.44C0 26.2267 0 25.0129 0 23.7997C0.0180761 23.7823 0.0482029 23.7677 0.0514894 23.7475C0.182952 23.0281 0.536805 22.444 1.0632 21.9816C0.922427 21.7925 0.787678 21.5994 0.641427 21.4159C0.294695 20.9827 0.169806 20.4496 0 19.9356C0 19.5254 0 19.1146 0 18.7038ZM26.3505 26.3148C26.3505 25.6751 26.356 25.0601 26.3467 24.4462C26.3445 24.2857 26.3138 24.1196 26.2656 23.9664C26.0383 23.247 25.5344 22.9658 24.7911 22.9647C17.5672 22.9569 10.3428 22.9613 3.11894 22.9585C2.17954 22.9585 1.58686 23.6516 1.63397 24.4742C1.66902 25.0842 1.64109 25.6976 1.64109 26.3148H26.3516H26.3505ZM17.0567 21.2801C19.4882 21.2801 21.9202 21.2801 24.3518 21.2801C24.7434 21.2801 25.135 21.2824 25.5267 21.2784C25.9364 21.2745 26.4469 20.8531 26.3012 20.2723C26.1895 19.8284 25.8992 19.6006 25.393 19.6C23.6446 19.5989 21.8956 19.5916 20.1472 19.6051C19.6854 19.6084 19.2998 19.2162 19.3041 18.7476C19.3135 17.7959 19.3102 16.8441 19.3047 15.8924C19.3025 15.517 19.4466 15.2387 19.7648 15.0501C21.0345 14.2965 22.2998 13.5344 23.5745 12.7886C24.0757 12.4952 24.1053 12.0187 23.9289 11.627C23.7673 11.2685 23.1034 11.1198 22.7611 11.324C21.2646 12.2157 19.7714 13.113 18.2689 13.9946C17.846 14.2426 17.6373 14.5759 17.6537 15.0821C17.6735 15.6786 17.6291 16.2779 17.6658 16.8728C17.7102 17.6 17.272 17.9334 16.6486 17.9283C14.1169 17.9075 11.5846 17.9182 9.05282 17.9221C8.84796 17.9221 8.64365 17.958 8.43879 17.9743C7.74423 18.0304 7.0042 18.7891 7.10992 19.7953C7.19318 20.5865 7.86912 21.2779 8.69569 21.2784C11.4827 21.2807 14.2697 21.2796 17.0567 21.2796V21.2801ZM21.7148 9.98061C21.4656 9.73706 21.2377 9.47163 20.9693 9.26008C20.2063 8.65739 19.3135 8.41665 18.368 8.40487C16.911 8.38635 15.4523 8.37457 13.9964 8.41778C13.5039 8.43237 12.9803 8.54123 12.5322 8.74718C10.9705 9.46658 10.0821 10.7011 10.0443 12.4952C10.0262 13.3526 10.0218 14.2129 10.064 15.0692C10.0952 15.705 10.6375 16.2134 11.2395 16.2291C12.5596 16.2628 13.8808 16.2476 15.2014 16.2347C15.5657 16.2314 15.8292 16.0198 15.9694 15.6696C16.0926 15.3632 16.005 15.1006 15.8029 14.8593C15.6079 14.6264 15.3521 14.5614 15.0716 14.5608C14.2242 14.5585 13.3768 14.5406 12.5306 14.5675C12.0425 14.5827 11.6289 14.1826 11.6481 13.6624C11.6678 13.1315 11.6618 12.5984 11.6498 12.067C11.6388 11.562 12.0452 11.1776 12.478 11.1972C12.8614 11.2146 13.3029 11.5025 13.2848 12.0636C13.2761 12.3307 13.2832 12.5984 13.2832 12.8801C13.866 12.8801 14.4198 12.8801 14.9741 12.8801C15.523 12.8801 16.0548 12.9536 16.4766 13.2443C18.1204 11.9733 19.979 11.1259 21.7132 9.98117L21.7148 9.98061ZM13.9416 4.20066C13.9038 5.53791 15.0261 6.6692 16.2 6.71185C17.7666 6.76853 18.8446 5.63162 18.8391 4.2001C18.8336 2.74501 17.8 1.69172 16.3101 1.6934C15.0261 1.69452 13.9306 2.80225 13.941 4.20122L13.9416 4.20066ZM1.64109 19.3121C1.57536 20.3166 2.54106 21.3413 3.57468 21.2812C4.53326 21.2257 5.44144 20.4945 5.44802 19.3306C5.45404 18.2263 4.65431 17.3666 3.45636 17.3728C2.44082 17.3784 1.61808 18.2925 1.64164 19.3116L1.64109 19.3121ZM22.5863 15.3358C22.2023 15.558 21.877 15.801 21.5138 15.9435C20.9633 16.1601 20.8538 16.5585 20.9381 17.0849C20.9398 17.0939 20.9381 17.1034 20.9381 17.1129C20.9661 17.5232 21.3659 17.9255 21.7384 17.9182C22.187 17.9092 22.5787 17.5304 22.5841 17.0832C22.5913 16.5254 22.5858 15.9671 22.5858 15.3358H22.5863Z"/>
</mask>
<path d="M0 18.7038C0.12708 18.3542 0.227868 17.9912 0.387266 17.6578C0.809041 16.7723 1.49648 16.1573 2.40302 15.8599C3.84473 15.3868 5.4157 15.8464 6.42687 17.1764C7.065 16.5984 7.80667 16.2521 8.6913 16.2375C8.41742 15.6814 8.35881 15.1001 8.36922 14.4991C8.38291 13.7061 8.31444 12.9087 8.37799 12.1214C8.4596 11.1085 8.79045 10.1663 9.35574 9.31002C10.2201 8.00084 11.4159 7.20904 12.8954 6.83418C12.9638 6.81679 13.0389 6.82465 13.161 6.81735C12.2643 5.53847 12.0299 4.15858 12.5464 2.70798C12.8817 1.76635 13.5012 1.02169 14.377 0.528435C16.1211 -0.454156 18.3017 -0.0383365 19.5687 1.54189C20.7924 3.06824 20.7962 5.24217 19.5917 6.81567C19.7226 6.85102 19.8316 6.88076 19.9406 6.9105C21.384 7.305 22.4998 8.16133 23.3335 9.42225C23.3822 9.49576 23.4907 9.55918 23.5778 9.56872C24.2236 9.6411 24.7341 9.95872 25.1438 10.457C25.5053 10.897 25.6812 11.429 25.6839 11.9873C25.6877 12.7774 25.3996 13.466 24.7932 13.9845C24.6793 14.0816 24.5205 14.1276 24.418 14.2331C24.3342 14.3195 24.2603 14.4598 24.2581 14.5776C24.2438 15.3144 24.2625 16.0524 24.246 16.7892C24.2378 17.1528 24.1781 17.5153 24.1376 17.9188C24.5353 17.9188 24.957 17.9216 25.3783 17.9182C25.8575 17.9143 26.3127 18.0125 26.7318 18.2555C27.4181 18.6533 27.8059 19.2543 27.9407 20.0523C28.0897 20.9322 27.7753 21.6381 27.2795 22.2184C27.4986 22.7296 27.7205 23.2088 27.9056 23.7026C27.9774 23.8934 27.9845 24.1179 27.9867 24.3272C27.9955 25.1482 27.9681 25.9708 27.9982 26.7907C28.0179 27.3322 27.8804 27.7486 27.3891 28H0.546664C0.36426 27.8131 0.182404 27.6268 0 27.44C0 26.2267 0 25.0129 0 23.7997C0.0180761 23.7823 0.0482029 23.7677 0.0514894 23.7475C0.182952 23.0281 0.536805 22.444 1.0632 21.9816C0.922427 21.7925 0.787678 21.5994 0.641427 21.4159C0.294695 20.9827 0.169806 20.4496 0 19.9356C0 19.5254 0 19.1146 0 18.7038ZM26.3505 26.3148C26.3505 25.6751 26.356 25.0601 26.3467 24.4462C26.3445 24.2857 26.3138 24.1196 26.2656 23.9664C26.0383 23.247 25.5344 22.9658 24.7911 22.9647C17.5672 22.9569 10.3428 22.9613 3.11894 22.9585C2.17954 22.9585 1.58686 23.6516 1.63397 24.4742C1.66902 25.0842 1.64109 25.6976 1.64109 26.3148H26.3516H26.3505ZM17.0567 21.2801C19.4882 21.2801 21.9202 21.2801 24.3518 21.2801C24.7434 21.2801 25.135 21.2824 25.5267 21.2784C25.9364 21.2745 26.4469 20.8531 26.3012 20.2723C26.1895 19.8284 25.8992 19.6006 25.393 19.6C23.6446 19.5989 21.8956 19.5916 20.1472 19.6051C19.6854 19.6084 19.2998 19.2162 19.3041 18.7476C19.3135 17.7959 19.3102 16.8441 19.3047 15.8924C19.3025 15.517 19.4466 15.2387 19.7648 15.0501C21.0345 14.2965 22.2998 13.5344 23.5745 12.7886C24.0757 12.4952 24.1053 12.0187 23.9289 11.627C23.7673 11.2685 23.1034 11.1198 22.7611 11.324C21.2646 12.2157 19.7714 13.113 18.2689 13.9946C17.846 14.2426 17.6373 14.5759 17.6537 15.0821C17.6735 15.6786 17.6291 16.2779 17.6658 16.8728C17.7102 17.6 17.272 17.9334 16.6486 17.9283C14.1169 17.9075 11.5846 17.9182 9.05282 17.9221C8.84796 17.9221 8.64365 17.958 8.43879 17.9743C7.74423 18.0304 7.0042 18.7891 7.10992 19.7953C7.19318 20.5865 7.86912 21.2779 8.69569 21.2784C11.4827 21.2807 14.2697 21.2796 17.0567 21.2796V21.2801ZM21.7148 9.98061C21.4656 9.73706 21.2377 9.47163 20.9693 9.26008C20.2063 8.65739 19.3135 8.41665 18.368 8.40487C16.911 8.38635 15.4523 8.37457 13.9964 8.41778C13.5039 8.43237 12.9803 8.54123 12.5322 8.74718C10.9705 9.46658 10.0821 10.7011 10.0443 12.4952C10.0262 13.3526 10.0218 14.2129 10.064 15.0692C10.0952 15.705 10.6375 16.2134 11.2395 16.2291C12.5596 16.2628 13.8808 16.2476 15.2014 16.2347C15.5657 16.2314 15.8292 16.0198 15.9694 15.6696C16.0926 15.3632 16.005 15.1006 15.8029 14.8593C15.6079 14.6264 15.3521 14.5614 15.0716 14.5608C14.2242 14.5585 13.3768 14.5406 12.5306 14.5675C12.0425 14.5827 11.6289 14.1826 11.6481 13.6624C11.6678 13.1315 11.6618 12.5984 11.6498 12.067C11.6388 11.562 12.0452 11.1776 12.478 11.1972C12.8614 11.2146 13.3029 11.5025 13.2848 12.0636C13.2761 12.3307 13.2832 12.5984 13.2832 12.8801C13.866 12.8801 14.4198 12.8801 14.9741 12.8801C15.523 12.8801 16.0548 12.9536 16.4766 13.2443C18.1204 11.9733 19.979 11.1259 21.7132 9.98117L21.7148 9.98061ZM13.9416 4.20066C13.9038 5.53791 15.0261 6.6692 16.2 6.71185C17.7666 6.76853 18.8446 5.63162 18.8391 4.2001C18.8336 2.74501 17.8 1.69172 16.3101 1.6934C15.0261 1.69452 13.9306 2.80225 13.941 4.20122L13.9416 4.20066ZM1.64109 19.3121C1.57536 20.3166 2.54106 21.3413 3.57468 21.2812C4.53326 21.2257 5.44144 20.4945 5.44802 19.3306C5.45404 18.2263 4.65431 17.3666 3.45636 17.3728C2.44082 17.3784 1.61808 18.2925 1.64164 19.3116L1.64109 19.3121ZM22.5863 15.3358C22.2023 15.558 21.877 15.801 21.5138 15.9435C20.9633 16.1601 20.8538 16.5585 20.9381 17.0849C20.9398 17.0939 20.9381 17.1034 20.9381 17.1129C20.9661 17.5232 21.3659 17.9255 21.7384 17.9182C22.187 17.9092 22.5787 17.5304 22.5841 17.0832C22.5913 16.5254 22.5858 15.9671 22.5858 15.3358H22.5863Z" fill="#2F438F" stroke="white" stroke-width="0.5" mask="url(#path-1-inside-1_149_2129)"/>
</svg>
