<svg width="24" height="29" viewBox="0 0 24 29" fill="none" xmlns="http://www.w3.org/2000/svg">
<path d="M21.734 17.1898C21.734 17.4578 21.734 17.7202 21.734 17.9836C21.734 19.4292 21.734 20.8749 21.734 22.3194C21.7329 23.8002 20.7819 24.7587 19.3192 24.7587C18.1174 24.7587 16.9156 24.7575 15.7138 24.7587C14.7394 24.7609 14.083 25.4173 14.073 26.4041C14.0662 27.0469 14.073 27.6885 14.0707 28.3313C14.0696 28.815 13.8893 28.999 13.4121 28.999C10.2537 28.999 7.0963 28.999 3.93782 28.999C3.48308 28.999 3.28372 28.8275 3.28708 28.4176C3.31284 24.2874 2.54562 20.3048 1.14446 16.4358C0.71885 15.2604 0.339159 14.0669 0.148754 12.8234C-0.339579 9.61987 0.36828 6.70818 2.30481 4.13489C3.97926 1.91137 6.20028 0.528203 8.93875 0.122791C12.0278 -0.335994 14.7864 0.499813 17.1553 2.56548C19.1355 4.2916 20.3037 6.49695 20.7719 9.09182C20.8066 9.286 20.8357 9.4836 20.8447 9.68006C20.8659 10.1502 21.0396 10.5556 21.3106 10.9292C21.9647 11.8354 22.6266 12.7348 23.2617 13.6547C23.6033 14.1498 23.8855 14.6858 23.9774 15.2956C24.114 16.1996 23.6537 16.8344 22.7129 17.0399C22.4049 17.1069 22.089 17.1365 21.7362 17.1887L21.734 17.1898ZM20.7271 19.0874C20.7271 18.3425 20.7271 17.6361 20.7271 16.9286C20.7271 16.2405 20.8267 16.1485 21.4943 16.1371C21.818 16.1314 22.1473 16.1087 22.462 16.0395C23.0388 15.9134 23.171 15.6681 22.9178 15.1264C22.7039 14.6699 22.434 14.235 22.1506 13.8182C21.5492 12.9324 20.9175 12.0682 20.3104 11.187C20.0349 10.7861 19.9083 10.3296 19.8389 9.84245C19.7549 9.24739 19.6586 8.64779 19.4894 8.07318C18.3089 4.06675 14.8312 1.25953 11.0063 1.04604C8.30033 0.895004 5.94267 1.76829 4.03974 3.69882C1.29006 6.48787 0.420922 9.86857 1.37071 13.6819C1.76048 15.2479 2.33393 16.7674 2.81667 18.3107C3.56933 20.7204 4.03974 23.1836 4.18982 25.7092C4.2335 26.453 4.27046 27.1979 4.31079 27.9656H13.0661C13.0661 27.4307 13.0605 26.9129 13.0661 26.3962C13.0873 24.8268 14.1726 23.7377 15.7194 23.7332C16.9122 23.7298 18.104 23.7343 19.2968 23.7298C19.4637 23.7298 19.6328 23.7139 19.7952 23.6787C20.2511 23.5822 20.6767 22.7486 20.6767 22.6158L20.7271 19.0874Z" fill="#2F438F"/>
<path d="M10.4308 17.1046C6.86575 17.1035 3.95703 14.1475 3.95703 10.5272C3.95703 6.91026 6.87023 3.95881 10.4409 3.95654C14.0026 3.95541 16.9315 6.92843 16.9214 10.5363C16.9113 14.1577 13.9992 17.1046 10.4308 17.1035V17.1046ZM10.4151 16.086C13.4437 16.0905 15.91 13.6013 15.9156 10.5328C15.9212 7.48715 13.4504 4.97859 10.4442 4.97859C7.44032 4.97859 4.97066 7.46216 4.96394 10.4897C4.95722 13.5729 7.40112 16.0814 10.4151 16.086Z" fill="#2F438F"/>
<path d="M10.2876 14.4995C9.32321 14.4609 8.43838 13.9442 7.84589 12.929C7.64652 12.5883 7.70028 12.3123 7.97805 12.1465C8.26478 11.9762 8.50446 12.0602 8.71615 12.4032C9.38481 13.4877 10.6527 13.8193 11.6249 13.1254C11.8948 12.9324 12.0908 12.6235 12.2969 12.3498C12.4324 12.1692 12.5971 12.0228 12.8054 12.0818C12.9622 12.1261 13.1324 12.268 13.2075 12.4134C13.2646 12.5247 13.2164 12.728 13.1526 12.8597C12.671 13.867 11.6293 14.4972 10.2876 14.4972L10.2876 14.4995Z" fill="#2F438F"/>
<path d="M10.9259 9.19162C10.9293 8.58293 11.3448 8.14572 11.9116 8.15367C12.4839 8.16162 12.905 8.617 12.8983 9.22341C12.8927 9.80825 12.4212 10.3 11.8724 10.292C11.3493 10.2852 10.9215 9.78781 10.9248 9.19275L10.9259 9.19162ZM12.2218 9.75828C12.2162 9.8639 12.0673 9.94793 11.8892 9.94452C11.7144 9.94225 11.5946 9.86162 11.5968 9.75147C11.6002 9.62996 11.7391 9.54252 11.9194 9.54933C12.0874 9.55615 12.2274 9.65267 12.2218 9.75828Z" fill="#2F438F"/>
<path d="M8.75203 10.2908C8.20546 10.2886 7.80337 9.83093 7.80225 9.21089C7.80225 8.59539 8.20658 8.14569 8.76323 8.14796C9.29861 8.14909 9.73654 8.63627 9.73094 9.22338C9.72422 9.80708 9.27845 10.2931 8.75203 10.292V10.2908ZM9.21796 9.54816C9.30981 9.54816 9.37589 9.54816 9.37589 9.54816C9.37589 9.54816 9.30869 9.54816 9.21684 9.54816C9.13172 9.54816 9.0634 9.54816 9.06228 9.54816C9.06116 9.54816 9.12836 9.54816 9.21796 9.54816Z" fill="#2F438F"/>
</svg>
