<svg width="29" height="29" viewBox="0 0 29 29" fill="none" xmlns="http://www.w3.org/2000/svg">
<path d="M14.6457 0.753174C7.02826 0.753174 0.852539 6.9289 0.852539 14.5463C0.852539 22.1638 7.02826 28.3395 14.6457 28.3395C22.2631 28.3395 28.4389 22.1638 28.4389 14.5463C28.4389 6.9289 22.2631 0.753174 14.6457 0.753174ZM23.1024 22.9922C21.0043 25.0795 18.207 26.3168 15.2482 26.4567C12.2895 26.5965 9.39526 25.6282 7.10358 23.7454C4.82265 21.8625 3.32713 19.1943 2.89677 16.2678C2.47716 13.3413 3.15499 10.361 4.81189 7.90797C6.46879 5.4549 8.97566 3.70117 11.8483 3.00183C14.721 2.29172 17.7551 2.68981 20.3588 4.09925C22.9625 5.5087 24.9422 7.83266 25.9212 10.63C26.9003 13.4274 26.8035 16.483 25.6523 19.205C25.0498 20.6252 24.1783 21.9163 23.0916 23.003L23.1024 22.9922Z" fill="#2F438F"/>
<path d="M9.43699 10.6055H11.4418V13.0632H9.43699V10.6055ZM17.8497 10.6055H19.8545V13.0632H17.8497V10.6055ZM18.7678 17.2099C18.4586 18.1767 17.9152 18.992 17.222 19.5744C16.5287 20.1568 15.7043 20.4597 14.8612 20.4597H14.4303C13.5871 20.4597 12.7627 20.1568 12.0695 19.5744C11.3762 18.992 10.8329 18.165 10.5237 17.2099L10.4581 17.0119H8.73438L9.03416 17.9437C9.4651 19.2716 10.2146 20.4014 11.1701 21.2051C12.135 22.0089 13.2686 22.4282 14.4303 22.4282H14.8612C16.0229 22.4282 17.1564 21.9972 18.1213 21.2051C19.0863 20.4014 19.8264 19.2716 20.2573 17.9437L20.5571 17.0119H18.8333L18.7678 17.2099Z" fill="#2F438F"/>
</svg>
