<svg width="19" height="19" viewBox="0 0 19 19" fill="none" xmlns="http://www.w3.org/2000/svg">
<path d="M9.23083 18.2348C8.31806 18.2348 7.4053 18.2256 6.49289 18.2393C6.14389 18.2446 5.69645 17.9612 5.6671 17.5151C5.66066 17.416 5.61448 17.3632 5.52858 17.3187C3.84479 16.4528 2.54831 15.1458 1.64234 13.4128C1.26399 12.6894 0.998037 11.9128 0.823359 11.1031C0.700941 10.5351 0.623267 9.96096 0.611096 9.37811C0.602864 8.99057 0.792934 8.77665 1.16019 8.77285C1.29943 8.77133 1.32699 8.72536 1.31697 8.58288C1.21817 7.13299 1.69425 5.94944 2.79994 5.07556C2.95243 4.95511 3.00648 4.85139 2.98357 4.64545C2.91699 4.04665 3.1672 3.64466 3.69911 3.42163C3.87522 3.34754 4.04811 3.26357 4.22028 3.17922C4.4286 3.07702 4.53563 2.8821 4.61975 2.66933C4.71353 2.43224 4.79657 2.18945 4.93009 1.9725C5.15202 1.61193 5.48025 1.48882 5.86684 1.51352C6.04474 1.52492 6.22264 1.5538 6.39839 1.58761C6.71231 1.64764 6.9686 1.52606 7.20413 1.32279C7.37451 1.17575 7.54883 1.03251 7.74463 0.925739C8.14625 0.706887 8.5178 0.803394 8.86715 1.06632C9.00246 1.16815 9.14027 1.26731 9.26626 1.38092C9.50501 1.59597 9.77347 1.62295 10.0706 1.57507C10.304 1.53708 10.537 1.48616 10.78 1.52188C11.1981 1.58305 11.4412 1.85358 11.6019 2.23809C11.662 2.38209 11.7221 2.52571 11.7765 2.67199C11.8238 2.80003 11.8771 2.83005 11.9953 2.74038C12.4577 2.38817 12.9417 2.07129 13.4353 1.77075C13.6869 1.61725 13.9407 1.46755 14.1959 1.32089C14.3763 1.21754 14.546 1.30151 14.6054 1.51542C14.9107 2.61234 15.1574 3.72331 15.3134 4.85595C15.3503 5.12495 15.385 5.39433 15.4115 5.66448C15.4233 5.78302 15.4709 5.80202 15.5651 5.76479C16.2591 5.48932 16.9754 5.31265 17.711 5.22032C17.9927 5.18498 18.0961 5.29973 18.0621 5.59647C17.9572 6.51595 17.7339 7.40123 17.4003 8.25612C17.3527 8.37809 17.3022 8.50005 17.2413 8.61518C17.1887 8.71434 17.1901 8.75842 17.3111 8.77172C17.755 8.82035 17.891 8.98145 17.8738 9.45601C17.8352 10.5267 17.6104 11.5533 17.2274 12.5446C16.6754 13.9729 15.8231 15.1632 14.7089 16.145C14.1784 16.6124 13.5913 16.9923 12.9732 17.3145C12.8765 17.3651 12.8278 17.4179 12.8085 17.5319C12.7358 17.9612 12.4201 18.234 12.0046 18.2348C11.08 18.2363 10.1554 18.2348 9.23083 18.2348ZM9.25338 9.29681C6.62282 9.29681 3.99227 9.29681 1.36171 9.29681C1.10614 9.29681 1.09755 9.30327 1.11902 9.57645C1.18381 10.4044 1.33057 11.2114 1.6044 11.9956C2.06508 13.314 2.77775 14.4455 3.75244 15.3943C4.39138 16.0162 5.09832 16.5292 5.8969 16.8939C6.06908 16.9726 6.17431 17.0862 6.16859 17.3065C6.16071 17.6071 6.2434 17.6842 6.53226 17.6846C8.33954 17.6854 10.1472 17.6854 11.9544 17.6846C12.2301 17.6846 12.3246 17.5911 12.3199 17.2993C12.3167 17.1109 12.3707 16.9824 12.5476 16.9239C12.6091 16.9034 12.6675 16.87 12.7262 16.84C14.1741 16.0983 15.3199 14.9976 16.1779 13.5576C16.3813 13.216 16.4776 12.9675 16.6615 12.5629C16.8444 12.1594 16.9918 11.7414 17.0903 11.3052C17.1436 11.0685 17.1422 11.0678 16.9156 11.0678C12.9729 11.0678 9.02986 11.087 5.08723 11.0659C4.9394 11.0651 4.85528 10.9815 4.84883 10.8234C4.84203 10.6635 4.92579 10.5761 5.06826 10.5548C5.1445 10.5434 5.22289 10.5487 5.30056 10.5487C9.11807 10.5487 12.9359 10.5487 16.7534 10.5487C16.8726 10.5487 16.9922 10.5453 17.1114 10.5495C17.2313 10.5537 17.2821 10.4948 17.2925 10.3705C17.3136 10.1186 17.3469 9.86749 17.3677 9.61558C17.3938 9.29795 17.391 9.29718 17.0924 9.29718C14.4798 9.29718 11.8671 9.29718 9.25445 9.29718L9.25338 9.29681ZM7.82839 1.53632C7.66695 1.60585 7.57317 1.70008 7.47688 1.78443C7.05415 2.15412 6.56949 2.18793 6.06371 2.06977C5.79632 2.00708 5.50531 2.05647 5.38611 2.22593C5.29663 2.35283 5.24115 2.49987 5.17886 2.64235C5.14772 2.71341 5.1513 2.76128 5.22504 2.81447C5.41511 2.95163 5.42549 3.10399 5.26334 3.28143C5.09868 3.46153 4.92794 3.6363 4.7572 3.80994C4.63478 3.93457 4.5027 3.94331 4.38136 3.82248C4.31764 3.75903 4.26574 3.74915 4.19129 3.78639C4.10037 3.83198 4.00193 3.86162 3.91423 3.91291C3.77642 3.99346 3.61642 4.04399 3.53553 4.21041C3.48434 4.31566 3.43423 4.43876 3.49794 4.53223C3.56488 4.63064 3.68407 4.57212 3.77929 4.53831C4.07424 4.43382 4.37742 4.37075 4.68633 4.34833C5.28481 4.30464 5.85717 4.43192 6.4034 4.68611C6.4911 4.72676 6.54479 4.7203 6.60349 4.65305C6.69728 4.54591 6.81218 4.52995 6.92493 4.59758C7.04592 4.67015 7.0724 4.80237 7.02229 4.92814C6.98041 5.03376 7.02229 5.07176 7.09066 5.12571C7.49693 5.44373 7.81622 5.8442 8.06284 6.3104C8.1262 6.43046 8.16665 6.59308 8.3245 6.39664C8.35063 6.36435 8.41292 6.35029 8.45766 6.35219C8.55001 6.35637 8.5969 6.30584 8.63735 6.22871C9.07798 5.38446 9.69687 4.70245 10.3698 4.06641C10.6834 3.77005 11.0331 3.5189 11.327 3.19784C11.3799 3.14009 11.4036 3.09602 11.3696 3.01775C11.2901 2.83499 11.2174 2.64919 11.1423 2.46454C11.0209 2.16704 10.8294 1.99416 10.503 2.05191C10.4035 2.06939 10.3011 2.07053 10.2016 2.08839C9.75092 2.1697 9.32461 2.1336 8.95163 1.81482C8.83136 1.71224 8.70787 1.61345 8.58402 1.5158C8.53462 1.47667 8.46733 1.43411 8.45301 1.54202C8.419 1.79734 8.21927 1.91285 8.06714 2.06369C7.97014 2.15982 7.83984 2.15146 7.74284 2.05229C7.64691 1.95464 7.63402 1.83154 7.71456 1.70882C7.74356 1.66436 7.77291 1.62029 7.8291 1.53556L7.82839 1.53632ZM12.2505 8.76982C12.4015 8.79109 12.5522 8.78501 12.6578 8.52513C13.0777 7.49356 13.7714 6.71238 14.6999 6.17171C14.9744 6.01175 14.9594 6.07901 14.92 5.72299C14.8041 4.67623 14.6136 3.64352 14.3684 2.62184C14.3541 2.56218 14.3588 2.47404 14.2897 2.46682C14.2145 2.45922 14.2192 2.55497 14.1988 2.60702C13.8605 3.47255 13.528 4.34073 13.1897 5.20626C12.7763 6.26404 12.3568 7.31917 11.9448 8.37771C11.7937 8.7664 11.8002 8.76944 12.2501 8.76944L12.2505 8.76982ZM15.8639 8.76982C16.0608 8.76982 16.2577 8.76564 16.4546 8.77172C16.5523 8.77476 16.6081 8.72916 16.6532 8.64405C17.0935 7.80854 17.3405 6.90426 17.5037 5.96958C17.5255 5.84382 17.498 5.78796 17.3723 5.81152C17.3254 5.82026 17.2778 5.82406 17.2313 5.8347C16.6382 5.96882 16.0551 6.13372 15.4895 6.37271C14.4529 6.81117 13.6876 7.55853 13.1675 8.59998C13.0952 8.74512 13.1453 8.77285 13.2746 8.77134C13.5788 8.76716 13.8831 8.76411 14.187 8.77285C14.3044 8.77627 14.3914 8.7379 14.4708 8.65241C14.7318 8.37125 14.9945 8.0916 15.2576 7.81272C15.4956 7.56043 15.7286 7.30245 15.9763 7.06156C16.1206 6.92098 16.3046 6.96809 16.3697 7.14097C16.4234 7.28383 16.3712 7.39629 16.2745 7.4985C15.9209 7.87161 15.569 8.24662 15.2179 8.6224C15.191 8.65089 15.1366 8.66533 15.1534 8.72384C15.1735 8.79375 15.2322 8.76792 15.2748 8.76868C15.4716 8.77171 15.6685 8.77019 15.8654 8.77019L15.8639 8.76982ZM9.63173 8.48941C9.65464 8.53235 9.62994 8.5654 9.58949 8.573C9.51074 8.58782 9.4932 8.64405 9.5068 8.71206C9.52542 8.80363 9.6013 8.77172 9.65464 8.77172C10.0355 8.77324 10.4167 8.7702 10.7976 8.76982C11.2314 8.76906 11.2228 8.76526 11.4122 8.33477C11.4759 8.19001 11.4898 8.08363 11.4218 7.93392C11.2887 7.64022 11.1867 7.33056 11.0696 7.0285C10.8151 6.37157 10.5588 5.71539 10.3043 5.05846C10.2667 4.96119 10.2166 4.95397 10.1508 5.02616C9.70081 5.51972 9.28559 6.04101 8.99458 6.66147C8.95914 6.73708 8.96129 6.79901 8.99387 6.87538C9.10519 7.13869 9.20792 7.40617 9.31709 7.67062C9.42943 7.94272 9.49222 8.2273 9.63173 8.48941ZM1.83098 8.15809C1.83098 8.30362 1.82454 8.44952 1.83277 8.59466C1.84279 8.77095 1.89971 8.79109 2.16888 8.77172C2.32996 8.76032 2.2709 8.64709 2.26446 8.56616C2.21577 7.9818 2.26911 7.41567 2.53184 6.88944C2.91341 6.12574 3.49365 5.62459 4.29151 5.42625C5.00168 5.24957 5.68393 5.34418 6.29995 5.76061C7.26462 6.41298 7.66946 7.36324 7.54991 8.56844C7.54203 8.64937 7.4955 8.77666 7.63259 8.7626C7.74892 8.75044 7.92432 8.8838 7.97264 8.62885C8.09757 7.9666 7.97837 7.33436 7.70561 6.75038C6.93459 5.09873 5.17886 4.44256 3.65615 5.17244C2.46956 5.74123 1.86391 6.76862 1.83098 8.15809ZM12.7802 4.84303C12.7763 4.82061 12.7763 4.80731 12.772 4.79591C12.5859 4.32022 12.3997 3.84452 12.2125 3.3692C12.1814 3.28979 12.1288 3.28941 12.0693 3.33538C11.6105 3.69102 11.1548 4.05083 10.7285 4.45092C10.6623 4.51323 10.6551 4.56984 10.6887 4.64963C10.7467 4.78717 10.7994 4.92738 10.8538 5.06682C11.139 5.79784 11.4247 6.52887 11.7093 7.25989C11.7236 7.29713 11.7397 7.33322 11.7794 7.33512C11.8306 7.3374 11.8209 7.28383 11.8335 7.25229C12.1166 6.53267 12.399 5.81304 12.6814 5.09304C12.7154 5.00679 12.7491 4.92016 12.7799 4.84189L12.7802 4.84303ZM6.41235 7.90543V7.90467C6.58524 7.90467 6.75777 7.90581 6.93066 7.90429C7.00404 7.90353 7.06596 7.88073 7.04413 7.78194C6.97361 7.46165 6.87303 7.15617 6.69513 6.8807C6.62497 6.77204 6.57307 6.78913 6.50255 6.86436C6.27311 7.10943 6.04402 7.3545 5.81422 7.59919C5.76196 7.65504 5.719 7.70823 5.75981 7.79676C5.79632 7.87579 5.85073 7.90733 5.93019 7.90657C6.09091 7.90505 6.25163 7.90619 6.41271 7.90619L6.41235 7.90543ZM5.16061 6.5832C5.16061 6.75988 5.1649 6.93655 5.15882 7.11285C5.1556 7.2086 5.21036 7.24507 5.27551 7.28079C5.33958 7.31536 5.38898 7.29029 5.43479 7.24165C5.68214 6.97873 5.92948 6.7158 6.17789 6.45402C6.22693 6.40234 6.23051 6.35713 6.17288 6.31458C5.90693 6.12042 5.62093 5.97566 5.29878 5.92247C5.20428 5.90689 5.15488 5.93918 5.15882 6.05317C5.16526 6.22947 5.16061 6.40652 5.16061 6.5832ZM13.7828 2.22251C13.7571 2.21757 13.7428 2.20959 13.7356 2.21415C13.3866 2.43794 13.0376 2.66135 12.6904 2.88856C12.6213 2.93378 12.6127 2.98849 12.6517 3.0793C12.7741 3.36502 12.8794 3.6591 12.9911 3.95014C13.0057 3.9889 13.0004 4.04741 13.0591 4.04399C13.1142 4.04057 13.1099 3.98358 13.1253 3.94482C13.261 3.60325 13.4038 3.26433 13.5305 2.91896C13.615 2.68833 13.7302 2.46872 13.7828 2.22251ZM3.40201 7.90581C3.40201 7.90581 3.40201 7.90391 3.40201 7.90277C3.57454 7.90277 3.74743 7.90277 3.91996 7.90277C4.00551 7.90277 4.04238 7.8435 4.0728 7.76903C4.10466 7.69114 4.0592 7.65884 4.01482 7.61211C3.78108 7.36514 3.55235 7.11361 3.3204 6.86512C3.26886 6.81003 3.20729 6.75152 3.14644 6.85031C2.98071 7.12007 2.84433 7.40313 2.7935 7.72609C2.7731 7.85451 2.80531 7.91493 2.93775 7.90809C3.09239 7.90011 3.24738 7.90581 3.40201 7.90581ZM4.64194 6.57446C4.64194 6.40994 4.63228 6.24504 4.64445 6.08167C4.65662 5.91715 4.57679 5.90119 4.46154 5.92931C4.18198 5.9977 3.92426 6.12042 3.68264 6.28418C3.5953 6.34345 3.59316 6.40424 3.66618 6.47985C3.90779 6.731 4.14905 6.98215 4.38601 7.23748C4.43505 7.29029 4.47729 7.30853 4.54207 7.28155C4.61152 7.25267 4.64445 7.20632 4.64266 7.12425C4.63908 6.94111 4.64158 6.7576 4.64194 6.57446ZM4.50091 8.18355C4.50342 8.42824 4.69707 8.63075 4.92078 8.62277C5.14307 8.61479 5.33564 8.39822 5.32884 8.16303C5.32204 7.92632 5.13841 7.74129 4.91076 7.74091C4.66915 7.74091 4.4984 7.92556 4.50091 8.18355ZM8.82885 8.76906C8.82885 8.76678 8.82885 8.76412 8.82885 8.76184C8.89436 8.76184 8.9595 8.76032 9.02501 8.76184C9.12058 8.7645 9.15816 8.72992 9.11807 8.62505C9.00174 8.32223 8.88934 8.01827 8.77444 7.71507C8.75977 7.67594 8.75511 7.62085 8.70035 7.62237C8.64558 7.62351 8.63878 7.6767 8.63198 7.71811C8.58223 8.01561 8.51064 8.3097 8.51708 8.61556C8.51959 8.72954 8.56361 8.77665 8.66849 8.76906C8.72183 8.76526 8.77552 8.76829 8.82885 8.76829V8.76906ZM6.42667 8.44116C6.25378 8.44116 6.08089 8.44192 5.908 8.44116C5.78916 8.4404 5.75444 8.53462 5.74728 8.62771C5.7412 8.7113 5.80348 8.7664 5.88581 8.76716C6.2255 8.76982 6.56555 8.77247 6.90524 8.7664C7.0384 8.76412 7.03303 8.63075 7.04341 8.54109C7.05701 8.42558 6.96037 8.4423 6.89164 8.44154C6.73665 8.43964 6.58166 8.44078 6.42667 8.44116ZM3.40845 8.76906C3.557 8.76906 3.70591 8.76906 3.85446 8.76906C3.95862 8.76906 4.08104 8.76943 4.07782 8.62353C4.07531 8.49929 3.9937 8.43318 3.85839 8.43774C3.55521 8.44724 3.25167 8.44078 2.94849 8.44116C2.86402 8.44116 2.77704 8.43014 2.78885 8.57376C2.79815 8.68509 2.80818 8.77475 2.94456 8.77019C3.09919 8.76525 3.25382 8.76868 3.40845 8.76906Z" fill="#2F438F"/>
<path d="M11.9288 15.9C11.8146 15.8878 11.7201 15.8468 11.6979 15.7096C11.6743 15.5645 11.7072 15.4524 11.8479 15.3863C12.4099 15.123 12.9278 14.7829 13.4007 14.3665C13.6849 14.1161 13.9487 13.8429 14.1878 13.5431C14.3127 13.3866 14.4784 13.3551 14.5951 13.4573C14.705 13.5538 14.6989 13.7544 14.5762 13.9003C13.8932 14.7111 13.1039 15.3726 12.1675 15.8259C12.0934 15.8616 12.0168 15.9049 11.9284 15.8996L11.9288 15.9Z" fill="#2F438F"/>
<path d="M3.26479 11.0685C3.02031 11.0685 2.77619 11.0711 2.53172 11.0673C2.37816 11.0651 2.27757 10.9629 2.27543 10.8189C2.27328 10.6718 2.37028 10.5556 2.52348 10.5537C3.02389 10.548 3.52466 10.5495 4.02543 10.5525C4.18078 10.5537 4.26776 10.6547 4.28423 10.8105C4.29854 10.9465 4.16897 11.0658 4.01541 11.0677C3.7652 11.0708 3.51464 11.0685 3.26443 11.0685H3.26479Z" fill="#2F438F"/>
<path d="M6.23319 3.90299C6.13046 3.89843 6.05207 3.85588 6.00768 3.75063C5.96044 3.63892 5.98191 3.53026 6.05171 3.45085C6.22746 3.25023 6.41216 3.0576 6.60045 2.87028C6.71535 2.75554 6.89897 2.76276 6.98667 2.8699C7.06828 2.96907 7.05611 3.15145 6.95231 3.26505C6.77978 3.45389 6.60259 3.63816 6.4272 3.82396C6.37386 3.88057 6.308 3.90375 6.23355 3.90299H6.23319Z" fill="#2F438F"/>
<path d="M9.58652 3.90417C9.48737 3.90531 9.40468 3.85782 9.36925 3.76625C9.3313 3.66746 9.32021 3.55348 9.40182 3.46457C9.58831 3.26206 9.77373 3.0584 9.96773 2.86463C10.0791 2.75368 10.2469 2.76432 10.3389 2.87147C10.4467 2.99723 10.4349 3.12147 10.3264 3.23926C10.141 3.44063 9.95521 3.64163 9.76728 3.84034C9.71932 3.89087 9.65346 3.90493 9.58652 3.90455V3.90417Z" fill="#2F438F"/>
<path d="M7.92057 3.90712C7.71046 3.90446 7.58876 3.67991 7.71189 3.50209C7.88657 3.2498 8.1042 3.03399 8.33436 2.83794C8.44711 2.74181 8.58385 2.77259 8.66904 2.88771C8.74671 2.99258 8.74779 3.12974 8.65401 3.23461C8.47038 3.44054 8.27959 3.63887 8.09096 3.83949C8.04192 3.89192 7.97677 3.90256 7.92093 3.9075L7.92057 3.90712Z" fill="#2F438F"/>
<path d="M8.71907 4.78965C8.71155 4.89984 8.70726 4.96481 8.65357 5.02028C8.47209 5.20798 8.29884 5.40517 8.1145 5.58983C7.97382 5.73079 7.84711 5.73155 7.74116 5.61225C7.637 5.49484 7.63879 5.34172 7.7612 5.2057C7.93696 5.01003 8.1213 4.82271 8.30099 4.63084C8.38511 4.54117 8.49356 4.54231 8.58269 4.58524C8.66574 4.62514 8.73876 4.70759 8.71907 4.78965Z" fill="#2F438F"/>
</svg>
