<svg width="9" height="20" viewBox="0 0 9 20" fill="none" xmlns="http://www.w3.org/2000/svg">
<mask id="path-1-outside-1_149_2207" maskUnits="userSpaceOnUse" x="0" y="0" width="9" height="20" fill="black">
<rect fill="white" width="9" height="20"/>
<path d="M2.83298 16.833C2.83298 16.1882 2.83298 15.544 2.83298 14.8993C2.83298 14.6659 2.78101 14.5974 2.55212 14.5267C1.59509 14.2311 0.991891 13.4189 1.00292 12.4298C1.00606 12.1174 1.07956 11.8165 1.22603 11.5391C1.31738 11.3659 1.31055 11.2121 1.19821 11.0514C1.07799 10.8798 1.02234 10.6835 1.02601 10.4731C1.03179 10.1565 1.01656 9.83679 1.05646 9.52385C1.07851 9.35273 1.17773 9.18108 1.27643 9.03246C1.37302 8.88698 1.38982 8.76662 1.30688 8.61276C0.911044 7.87594 0.879021 7.13493 1.32315 6.407C1.60506 5.94596 2.02924 5.65814 2.54004 5.49277C2.79728 5.40956 2.83298 5.36194 2.8335 5.09139C2.8335 4.69053 2.83298 4.2902 2.83455 3.88934C2.83455 3.83806 2.83508 3.78049 2.8587 3.7381C2.87708 3.70513 2.93587 3.66903 2.96737 3.67583C3.00622 3.68473 3.03824 3.73444 3.06607 3.7716C3.07657 3.78573 3.06817 3.81398 3.06817 3.83544C3.06817 4.37969 3.06607 4.92393 3.06974 5.4687C3.07027 5.57755 3.04297 5.6304 2.92275 5.65029C2.09591 5.7853 1.53891 6.2453 1.30845 7.05434C0.965642 8.25691 1.95365 9.47728 3.20624 9.42076C3.59787 9.40297 3.95065 9.28365 4.26039 9.04868C4.38533 8.95396 4.4877 8.95501 4.61212 9.04502C4.90296 9.25487 5.22214 9.39459 5.58648 9.42128C5.92561 9.4464 6.24584 9.37732 6.55243 9.24022C6.68367 9.1816 6.74562 9.05863 6.73197 8.92099C6.7199 8.79959 6.70782 8.6787 6.69627 8.55729C6.66478 8.22342 6.78342 8.08265 7.11993 8.05282C7.21127 8.04445 7.30262 8.03869 7.39292 8.02508C7.51419 8.00729 7.58716 7.93769 7.60711 7.81366C7.71525 7.1501 7.45119 6.3306 6.70992 5.91823C6.47526 5.78792 6.19965 5.72722 5.93821 5.65029C5.84476 5.62308 5.80487 5.58121 5.80067 5.4933C5.79804 5.43259 5.79752 5.37136 5.79752 5.31066C5.79804 4.09553 5.79909 2.88039 5.79962 1.66578C5.79962 1.60508 5.79962 1.54385 5.79489 1.48315C5.78544 1.35232 5.70775 1.26859 5.57545 1.2508C5.51088 1.2419 5.44526 1.23928 5.37964 1.23928C4.75071 1.23824 4.12232 1.23824 3.4934 1.23928C3.4367 1.23928 3.38 1.2419 3.32383 1.2487C3.14691 1.26964 3.06974 1.35284 3.06869 1.53077C3.06659 1.90075 3.06869 2.27126 3.06764 2.64124C3.06764 2.68415 3.07132 2.73282 3.05294 2.7684C3.03562 2.8019 2.99047 2.84376 2.96002 2.84167C2.92275 2.83958 2.87603 2.80294 2.8545 2.7684C2.8335 2.73491 2.83455 2.6852 2.83455 2.64281C2.8335 2.15927 2.8335 1.67625 2.83403 1.19271C2.83403 1.03519 2.865 1.0017 3.0267 1.00118C3.96535 0.999608 4.90401 0.999608 5.84266 1.00118C6.01801 1.00118 6.039 1.0263 6.039 1.22725C6.039 2.48163 6.03743 3.73549 6.0369 4.98987C6.0369 5.03801 6.0348 5.08563 6.03795 5.13378C6.05003 5.33839 6.11408 5.42317 6.30989 5.48231C7.16823 5.74187 7.67063 6.32222 7.84964 7.18883C7.90634 7.46409 7.89059 7.74249 7.82497 8.01619C7.78297 8.19097 7.6701 8.2768 7.48584 8.28465C7.42494 8.28726 7.35984 8.27261 7.30367 8.28936C7.24855 8.30558 7.17033 8.3443 7.15983 8.38722C7.1467 8.43955 7.1761 8.52642 7.2181 8.5641C7.35302 8.68603 7.51156 8.78179 7.64385 8.90634C7.86382 9.1141 7.99559 9.37575 7.99874 9.68032C8.00189 10.0226 8.00241 10.3685 7.95936 10.7065C7.93837 10.873 7.83442 11.0383 7.73572 11.1822C7.63913 11.323 7.61393 11.4434 7.6806 11.6035C8.00136 12.3738 7.93942 13.108 7.42914 13.781C7.14408 14.1573 6.75612 14.3933 6.30569 14.5288C6.0873 14.5942 6.04425 14.6507 6.04425 14.8815C6.04425 14.9119 6.0495 14.9496 6.03428 14.971C6.00541 15.0118 5.96341 15.0704 5.92613 15.071C5.88624 15.071 5.81326 15.0155 5.81064 14.9804C5.79857 14.8119 5.79804 14.6413 5.80854 14.4723C5.81536 14.364 5.91721 14.364 5.99806 14.3509C6.40491 14.2865 6.7724 14.1332 7.06061 13.8339C7.59871 13.275 7.78035 12.6135 7.53256 11.8756C7.28425 11.1367 6.74037 10.7207 5.96971 10.6061C5.47466 10.5328 5.02843 10.6673 4.6242 10.9525C4.44465 11.0791 4.44255 11.0833 4.26354 10.9562C3.16056 10.1707 1.99407 10.7411 1.54784 11.4402C0.838598 12.5507 1.41397 14.0379 2.75528 14.3247C3.11752 14.4022 3.06869 14.3347 3.06922 14.7083C3.07079 15.9407 3.06922 17.1731 3.06974 18.4055C3.06974 18.6818 3.15216 18.7671 3.4241 18.7676C4.11392 18.7682 4.80374 18.7682 5.49356 18.7676C5.72087 18.7676 5.79962 18.6912 5.79962 18.4615C5.80067 17.6907 5.79909 16.9198 5.79857 16.149C5.79857 16.1056 5.78597 16.0517 5.80644 16.0213C5.83846 15.9737 5.89464 15.9423 5.94031 15.9041C5.97286 15.9444 6.01381 15.9805 6.03533 16.026C6.05108 16.0585 6.04215 16.1029 6.04215 16.1422C6.04163 17.0219 6.04058 17.9016 6.03953 18.7813C6.03953 18.9942 6.03323 19 5.82009 19C4.89036 19 3.9601 19 3.03037 19C2.85398 19 2.8356 18.9827 2.8356 18.8059C2.83508 18.148 2.8356 17.4908 2.8356 16.833H2.83298ZM7.77877 10.1042C7.77352 10.1042 7.7688 10.1037 7.76355 10.1032C7.76355 10.0032 7.76355 9.90273 7.76355 9.80278C7.7646 9.39041 7.57088 9.0895 7.22335 8.88332C7.17505 8.85453 7.09053 8.83831 7.04748 8.86186C7.00496 8.88489 6.96979 8.966 6.97189 9.02042C6.97924 9.22766 6.88054 9.35744 6.70152 9.4396C6.03375 9.74574 5.36861 9.7562 4.71974 9.39512C4.51605 9.28156 4.35016 9.28941 4.14909 9.4014C3.70916 9.64683 3.23459 9.72062 2.73481 9.6238C2.38518 9.5563 2.07964 9.40244 1.79773 9.18945C1.60401 9.04345 1.46437 9.08113 1.38667 9.31139C1.32053 9.50711 1.27223 9.71224 1.24703 9.91686C1.20871 10.2267 1.26908 10.5323 1.35255 10.83C1.39875 10.9944 1.54154 11.0279 1.68013 10.9227C1.71111 10.8991 1.74208 10.8745 1.772 10.8494C2.44922 10.2806 3.3632 10.179 4.13807 10.6087C4.35646 10.7296 4.5255 10.7191 4.74232 10.605C5.44263 10.2356 6.14925 10.2523 6.83329 10.6553C7.00811 10.7583 7.15825 10.9023 7.31889 11.0289C7.42127 11.1095 7.50159 11.109 7.57141 10.9991C7.63808 10.8939 7.70633 10.7798 7.72995 10.6605C7.76617 10.4789 7.7646 10.29 7.7793 10.1042H7.77877Z"/>
</mask>
<path d="M2.83298 16.833C2.83298 16.1882 2.83298 15.544 2.83298 14.8993C2.83298 14.6659 2.78101 14.5974 2.55212 14.5267C1.59509 14.2311 0.991891 13.4189 1.00292 12.4298C1.00606 12.1174 1.07956 11.8165 1.22603 11.5391C1.31738 11.3659 1.31055 11.2121 1.19821 11.0514C1.07799 10.8798 1.02234 10.6835 1.02601 10.4731C1.03179 10.1565 1.01656 9.83679 1.05646 9.52385C1.07851 9.35273 1.17773 9.18108 1.27643 9.03246C1.37302 8.88698 1.38982 8.76662 1.30688 8.61276C0.911044 7.87594 0.879021 7.13493 1.32315 6.407C1.60506 5.94596 2.02924 5.65814 2.54004 5.49277C2.79728 5.40956 2.83298 5.36194 2.8335 5.09139C2.8335 4.69053 2.83298 4.2902 2.83455 3.88934C2.83455 3.83806 2.83508 3.78049 2.8587 3.7381C2.87708 3.70513 2.93587 3.66903 2.96737 3.67583C3.00622 3.68473 3.03824 3.73444 3.06607 3.7716C3.07657 3.78573 3.06817 3.81398 3.06817 3.83544C3.06817 4.37969 3.06607 4.92393 3.06974 5.4687C3.07027 5.57755 3.04297 5.6304 2.92275 5.65029C2.09591 5.7853 1.53891 6.2453 1.30845 7.05434C0.965642 8.25691 1.95365 9.47728 3.20624 9.42076C3.59787 9.40297 3.95065 9.28365 4.26039 9.04868C4.38533 8.95396 4.4877 8.95501 4.61212 9.04502C4.90296 9.25487 5.22214 9.39459 5.58648 9.42128C5.92561 9.4464 6.24584 9.37732 6.55243 9.24022C6.68367 9.1816 6.74562 9.05863 6.73197 8.92099C6.7199 8.79959 6.70782 8.6787 6.69627 8.55729C6.66478 8.22342 6.78342 8.08265 7.11993 8.05282C7.21127 8.04445 7.30262 8.03869 7.39292 8.02508C7.51419 8.00729 7.58716 7.93769 7.60711 7.81366C7.71525 7.1501 7.45119 6.3306 6.70992 5.91823C6.47526 5.78792 6.19965 5.72722 5.93821 5.65029C5.84476 5.62308 5.80487 5.58121 5.80067 5.4933C5.79804 5.43259 5.79752 5.37136 5.79752 5.31066C5.79804 4.09553 5.79909 2.88039 5.79962 1.66578C5.79962 1.60508 5.79962 1.54385 5.79489 1.48315C5.78544 1.35232 5.70775 1.26859 5.57545 1.2508C5.51088 1.2419 5.44526 1.23928 5.37964 1.23928C4.75071 1.23824 4.12232 1.23824 3.4934 1.23928C3.4367 1.23928 3.38 1.2419 3.32383 1.2487C3.14691 1.26964 3.06974 1.35284 3.06869 1.53077C3.06659 1.90075 3.06869 2.27126 3.06764 2.64124C3.06764 2.68415 3.07132 2.73282 3.05294 2.7684C3.03562 2.8019 2.99047 2.84376 2.96002 2.84167C2.92275 2.83958 2.87603 2.80294 2.8545 2.7684C2.8335 2.73491 2.83455 2.6852 2.83455 2.64281C2.8335 2.15927 2.8335 1.67625 2.83403 1.19271C2.83403 1.03519 2.865 1.0017 3.0267 1.00118C3.96535 0.999608 4.90401 0.999608 5.84266 1.00118C6.01801 1.00118 6.039 1.0263 6.039 1.22725C6.039 2.48163 6.03743 3.73549 6.0369 4.98987C6.0369 5.03801 6.0348 5.08563 6.03795 5.13378C6.05003 5.33839 6.11408 5.42317 6.30989 5.48231C7.16823 5.74187 7.67063 6.32222 7.84964 7.18883C7.90634 7.46409 7.89059 7.74249 7.82497 8.01619C7.78297 8.19097 7.6701 8.2768 7.48584 8.28465C7.42494 8.28726 7.35984 8.27261 7.30367 8.28936C7.24855 8.30558 7.17033 8.3443 7.15983 8.38722C7.1467 8.43955 7.1761 8.52642 7.2181 8.5641C7.35302 8.68603 7.51156 8.78179 7.64385 8.90634C7.86382 9.1141 7.99559 9.37575 7.99874 9.68032C8.00189 10.0226 8.00241 10.3685 7.95936 10.7065C7.93837 10.873 7.83442 11.0383 7.73572 11.1822C7.63913 11.323 7.61393 11.4434 7.6806 11.6035C8.00136 12.3738 7.93942 13.108 7.42914 13.781C7.14408 14.1573 6.75612 14.3933 6.30569 14.5288C6.0873 14.5942 6.04425 14.6507 6.04425 14.8815C6.04425 14.9119 6.0495 14.9496 6.03428 14.971C6.00541 15.0118 5.96341 15.0704 5.92613 15.071C5.88624 15.071 5.81326 15.0155 5.81064 14.9804C5.79857 14.8119 5.79804 14.6413 5.80854 14.4723C5.81536 14.364 5.91721 14.364 5.99806 14.3509C6.40491 14.2865 6.7724 14.1332 7.06061 13.8339C7.59871 13.275 7.78035 12.6135 7.53256 11.8756C7.28425 11.1367 6.74037 10.7207 5.96971 10.6061C5.47466 10.5328 5.02843 10.6673 4.6242 10.9525C4.44465 11.0791 4.44255 11.0833 4.26354 10.9562C3.16056 10.1707 1.99407 10.7411 1.54784 11.4402C0.838598 12.5507 1.41397 14.0379 2.75528 14.3247C3.11752 14.4022 3.06869 14.3347 3.06922 14.7083C3.07079 15.9407 3.06922 17.1731 3.06974 18.4055C3.06974 18.6818 3.15216 18.7671 3.4241 18.7676C4.11392 18.7682 4.80374 18.7682 5.49356 18.7676C5.72087 18.7676 5.79962 18.6912 5.79962 18.4615C5.80067 17.6907 5.79909 16.9198 5.79857 16.149C5.79857 16.1056 5.78597 16.0517 5.80644 16.0213C5.83846 15.9737 5.89464 15.9423 5.94031 15.9041C5.97286 15.9444 6.01381 15.9805 6.03533 16.026C6.05108 16.0585 6.04215 16.1029 6.04215 16.1422C6.04163 17.0219 6.04058 17.9016 6.03953 18.7813C6.03953 18.9942 6.03323 19 5.82009 19C4.89036 19 3.9601 19 3.03037 19C2.85398 19 2.8356 18.9827 2.8356 18.8059C2.83508 18.148 2.8356 17.4908 2.8356 16.833H2.83298ZM7.77877 10.1042C7.77352 10.1042 7.7688 10.1037 7.76355 10.1032C7.76355 10.0032 7.76355 9.90273 7.76355 9.80278C7.7646 9.39041 7.57088 9.0895 7.22335 8.88332C7.17505 8.85453 7.09053 8.83831 7.04748 8.86186C7.00496 8.88489 6.96979 8.966 6.97189 9.02042C6.97924 9.22766 6.88054 9.35744 6.70152 9.4396C6.03375 9.74574 5.36861 9.7562 4.71974 9.39512C4.51605 9.28156 4.35016 9.28941 4.14909 9.4014C3.70916 9.64683 3.23459 9.72062 2.73481 9.6238C2.38518 9.5563 2.07964 9.40244 1.79773 9.18945C1.60401 9.04345 1.46437 9.08113 1.38667 9.31139C1.32053 9.50711 1.27223 9.71224 1.24703 9.91686C1.20871 10.2267 1.26908 10.5323 1.35255 10.83C1.39875 10.9944 1.54154 11.0279 1.68013 10.9227C1.71111 10.8991 1.74208 10.8745 1.772 10.8494C2.44922 10.2806 3.3632 10.179 4.13807 10.6087C4.35646 10.7296 4.5255 10.7191 4.74232 10.605C5.44263 10.2356 6.14925 10.2523 6.83329 10.6553C7.00811 10.7583 7.15825 10.9023 7.31889 11.0289C7.42127 11.1095 7.50159 11.109 7.57141 10.9991C7.63808 10.8939 7.70633 10.7798 7.72995 10.6605C7.76617 10.4789 7.7646 10.29 7.7793 10.1042H7.77877Z" fill="#2F438F"/>
<path d="M2.83298 16.833C2.83298 16.1882 2.83298 15.544 2.83298 14.8993C2.83298 14.6659 2.78101 14.5974 2.55212 14.5267C1.59509 14.2311 0.991891 13.4189 1.00292 12.4298C1.00606 12.1174 1.07956 11.8165 1.22603 11.5391C1.31738 11.3659 1.31055 11.2121 1.19821 11.0514C1.07799 10.8798 1.02234 10.6835 1.02601 10.4731C1.03179 10.1565 1.01656 9.83679 1.05646 9.52385C1.07851 9.35273 1.17773 9.18108 1.27643 9.03246C1.37302 8.88698 1.38982 8.76662 1.30688 8.61276C0.911044 7.87594 0.879021 7.13493 1.32315 6.407C1.60506 5.94596 2.02924 5.65814 2.54004 5.49277C2.79728 5.40956 2.83298 5.36194 2.8335 5.09139C2.8335 4.69053 2.83298 4.2902 2.83455 3.88934C2.83455 3.83806 2.83508 3.78049 2.8587 3.7381C2.87708 3.70513 2.93587 3.66903 2.96737 3.67583C3.00622 3.68473 3.03824 3.73444 3.06607 3.7716C3.07657 3.78573 3.06817 3.81398 3.06817 3.83544C3.06817 4.37969 3.06607 4.92393 3.06974 5.4687C3.07027 5.57755 3.04297 5.6304 2.92275 5.65029C2.09591 5.7853 1.53891 6.2453 1.30845 7.05434C0.965642 8.25691 1.95365 9.47728 3.20624 9.42076C3.59787 9.40297 3.95065 9.28365 4.26039 9.04868C4.38533 8.95396 4.4877 8.95501 4.61212 9.04502C4.90296 9.25487 5.22214 9.39459 5.58648 9.42128C5.92561 9.4464 6.24584 9.37732 6.55243 9.24022C6.68367 9.1816 6.74562 9.05863 6.73197 8.92099C6.7199 8.79959 6.70782 8.6787 6.69627 8.55729C6.66478 8.22342 6.78342 8.08265 7.11993 8.05282C7.21127 8.04445 7.30262 8.03869 7.39292 8.02508C7.51419 8.00729 7.58716 7.93769 7.60711 7.81366C7.71525 7.1501 7.45119 6.3306 6.70992 5.91823C6.47526 5.78792 6.19965 5.72722 5.93821 5.65029C5.84476 5.62308 5.80487 5.58121 5.80067 5.4933C5.79804 5.43259 5.79752 5.37136 5.79752 5.31066C5.79804 4.09553 5.79909 2.88039 5.79962 1.66578C5.79962 1.60508 5.79962 1.54385 5.79489 1.48315C5.78544 1.35232 5.70775 1.26859 5.57545 1.2508C5.51088 1.2419 5.44526 1.23928 5.37964 1.23928C4.75071 1.23824 4.12232 1.23824 3.4934 1.23928C3.4367 1.23928 3.38 1.2419 3.32383 1.2487C3.14691 1.26964 3.06974 1.35284 3.06869 1.53077C3.06659 1.90075 3.06869 2.27126 3.06764 2.64124C3.06764 2.68415 3.07132 2.73282 3.05294 2.7684C3.03562 2.8019 2.99047 2.84376 2.96002 2.84167C2.92275 2.83958 2.87603 2.80294 2.8545 2.7684C2.8335 2.73491 2.83455 2.6852 2.83455 2.64281C2.8335 2.15927 2.8335 1.67625 2.83403 1.19271C2.83403 1.03519 2.865 1.0017 3.0267 1.00118C3.96535 0.999608 4.90401 0.999608 5.84266 1.00118C6.01801 1.00118 6.039 1.0263 6.039 1.22725C6.039 2.48163 6.03743 3.73549 6.0369 4.98987C6.0369 5.03801 6.0348 5.08563 6.03795 5.13378C6.05003 5.33839 6.11408 5.42317 6.30989 5.48231C7.16823 5.74187 7.67063 6.32222 7.84964 7.18883C7.90634 7.46409 7.89059 7.74249 7.82497 8.01619C7.78297 8.19097 7.6701 8.2768 7.48584 8.28465C7.42494 8.28726 7.35984 8.27261 7.30367 8.28936C7.24855 8.30558 7.17033 8.3443 7.15983 8.38722C7.1467 8.43955 7.1761 8.52642 7.2181 8.5641C7.35302 8.68603 7.51156 8.78179 7.64385 8.90634C7.86382 9.1141 7.99559 9.37575 7.99874 9.68032C8.00189 10.0226 8.00241 10.3685 7.95936 10.7065C7.93837 10.873 7.83442 11.0383 7.73572 11.1822C7.63913 11.323 7.61393 11.4434 7.6806 11.6035C8.00136 12.3738 7.93942 13.108 7.42914 13.781C7.14408 14.1573 6.75612 14.3933 6.30569 14.5288C6.0873 14.5942 6.04425 14.6507 6.04425 14.8815C6.04425 14.9119 6.0495 14.9496 6.03428 14.971C6.00541 15.0118 5.96341 15.0704 5.92613 15.071C5.88624 15.071 5.81326 15.0155 5.81064 14.9804C5.79857 14.8119 5.79804 14.6413 5.80854 14.4723C5.81536 14.364 5.91721 14.364 5.99806 14.3509C6.40491 14.2865 6.7724 14.1332 7.06061 13.8339C7.59871 13.275 7.78035 12.6135 7.53256 11.8756C7.28425 11.1367 6.74037 10.7207 5.96971 10.6061C5.47466 10.5328 5.02843 10.6673 4.6242 10.9525C4.44465 11.0791 4.44255 11.0833 4.26354 10.9562C3.16056 10.1707 1.99407 10.7411 1.54784 11.4402C0.838598 12.5507 1.41397 14.0379 2.75528 14.3247C3.11752 14.4022 3.06869 14.3347 3.06922 14.7083C3.07079 15.9407 3.06922 17.1731 3.06974 18.4055C3.06974 18.6818 3.15216 18.7671 3.4241 18.7676C4.11392 18.7682 4.80374 18.7682 5.49356 18.7676C5.72087 18.7676 5.79962 18.6912 5.79962 18.4615C5.80067 17.6907 5.79909 16.9198 5.79857 16.149C5.79857 16.1056 5.78597 16.0517 5.80644 16.0213C5.83846 15.9737 5.89464 15.9423 5.94031 15.9041C5.97286 15.9444 6.01381 15.9805 6.03533 16.026C6.05108 16.0585 6.04215 16.1029 6.04215 16.1422C6.04163 17.0219 6.04058 17.9016 6.03953 18.7813C6.03953 18.9942 6.03323 19 5.82009 19C4.89036 19 3.9601 19 3.03037 19C2.85398 19 2.8356 18.9827 2.8356 18.8059C2.83508 18.148 2.8356 17.4908 2.8356 16.833H2.83298ZM7.77877 10.1042C7.77352 10.1042 7.7688 10.1037 7.76355 10.1032C7.76355 10.0032 7.76355 9.90273 7.76355 9.80278C7.7646 9.39041 7.57088 9.0895 7.22335 8.88332C7.17505 8.85453 7.09053 8.83831 7.04748 8.86186C7.00496 8.88489 6.96979 8.966 6.97189 9.02042C6.97924 9.22766 6.88054 9.35744 6.70152 9.4396C6.03375 9.74574 5.36861 9.7562 4.71974 9.39512C4.51605 9.28156 4.35016 9.28941 4.14909 9.4014C3.70916 9.64683 3.23459 9.72062 2.73481 9.6238C2.38518 9.5563 2.07964 9.40244 1.79773 9.18945C1.60401 9.04345 1.46437 9.08113 1.38667 9.31139C1.32053 9.50711 1.27223 9.71224 1.24703 9.91686C1.20871 10.2267 1.26908 10.5323 1.35255 10.83C1.39875 10.9944 1.54154 11.0279 1.68013 10.9227C1.71111 10.8991 1.74208 10.8745 1.772 10.8494C2.44922 10.2806 3.3632 10.179 4.13807 10.6087C4.35646 10.7296 4.5255 10.7191 4.74232 10.605C5.44263 10.2356 6.14925 10.2523 6.83329 10.6553C7.00811 10.7583 7.15825 10.9023 7.31889 11.0289C7.42127 11.1095 7.50159 11.109 7.57141 10.9991C7.63808 10.8939 7.70633 10.7798 7.72995 10.6605C7.76617 10.4789 7.7646 10.29 7.7793 10.1042H7.77877Z" stroke="#2F438F" stroke-width="0.371531" mask="url(#path-1-outside-1_149_2207)"/>
</svg>
