<svg width="18" height="18" viewBox="0 0 18 18" fill="none" xmlns="http://www.w3.org/2000/svg">
<mask id="path-1-inside-1_149_2185" fill="white">
<path d="M0.742188 12.1865C0.81952 11.9738 0.880852 11.7528 0.97785 11.55C1.23451 11.0111 1.65284 10.6369 2.2045 10.4559C3.08182 10.168 4.0378 10.4477 4.65312 11.257C5.04145 10.9053 5.49278 10.6946 6.0311 10.6857C5.86444 10.3473 5.82877 9.99352 5.8351 9.62779C5.84344 9.14528 5.80177 8.66003 5.84044 8.18093C5.8901 7.56456 6.09143 6.99121 6.43543 6.47011C6.96142 5.67343 7.68907 5.1916 8.58939 4.96349C8.63106 4.9529 8.67673 4.95768 8.75106 4.95325C8.2054 4.17501 8.06274 3.3353 8.37706 2.45257C8.58106 1.87957 8.95805 1.42642 9.49105 1.12626C10.5524 0.52832 11.8793 0.781359 12.6503 1.74297C13.395 2.6718 13.3973 3.99471 12.6643 4.95222C12.744 4.97373 12.8103 4.99183 12.8767 5.00993C13.755 5.24999 14.434 5.7711 14.9413 6.53841C14.971 6.58314 15.037 6.62173 15.09 6.62753C15.4829 6.67158 15.7936 6.86486 16.0429 7.1681C16.2629 7.43582 16.3699 7.75955 16.3716 8.09932C16.3739 8.58013 16.1986 8.99913 15.8296 9.31466C15.7603 9.37373 15.6636 9.40173 15.6013 9.46593C15.5503 9.51852 15.5053 9.60389 15.5039 9.6756C15.4953 10.124 15.5066 10.573 15.4966 11.0214C15.4916 11.2427 15.4553 11.4633 15.4306 11.7088C15.6726 11.7088 15.9293 11.7105 16.1856 11.7084C16.4773 11.7061 16.7543 11.7658 17.0093 11.9137C17.4269 12.1558 17.6629 12.5215 17.7449 13.0071C17.8356 13.5425 17.6442 13.9721 17.3426 14.3252C17.4759 14.6363 17.6109 14.9279 17.7236 15.2284C17.7672 15.3445 17.7716 15.4811 17.7729 15.6085C17.7782 16.1081 17.7616 16.6087 17.7799 17.1076C17.7919 17.4371 17.7082 17.6905 17.4093 17.8435H1.07485C0.963851 17.7298 0.853186 17.6164 0.742188 17.5027C0.742188 16.7644 0.742188 16.0258 0.742188 15.2875C0.753187 15.2769 0.77152 15.2681 0.77352 15.2558C0.853519 14.818 1.06885 14.4625 1.38918 14.1811C1.30351 14.066 1.22151 13.9486 1.13251 13.8369C0.921518 13.5733 0.845519 13.2489 0.742188 12.9361C0.742188 12.6865 0.742188 12.4365 0.742188 12.1865ZM16.7773 16.818C16.7773 16.4288 16.7806 16.0545 16.7749 15.6809C16.7736 15.5832 16.7549 15.4822 16.7256 15.3889C16.5873 14.9512 16.2806 14.7801 15.8283 14.7794C11.4323 14.7746 7.03609 14.7773 2.64016 14.7756C2.0685 14.7756 1.70784 15.1974 1.7365 15.698C1.75784 16.0692 1.74084 16.4424 1.74084 16.818H16.7779H16.7773ZM11.1217 13.7543C12.6013 13.7543 14.0813 13.7543 15.5609 13.7543C15.7993 13.7543 16.0376 13.7556 16.2759 13.7532C16.5253 13.7508 16.8359 13.4944 16.7473 13.141C16.6793 12.8709 16.5026 12.7322 16.1946 12.7319C15.1306 12.7312 14.0663 12.7267 13.0023 12.7349C12.7213 12.737 12.4867 12.4983 12.4893 12.2132C12.495 11.634 12.493 11.0548 12.4897 10.4757C12.4883 10.2472 12.576 10.0779 12.7697 9.96313C13.5423 9.50452 14.3123 9.04079 15.088 8.58696C15.393 8.40836 15.411 8.11844 15.3036 7.88009C15.2053 7.66188 14.8013 7.57139 14.593 7.69569C13.6823 8.2383 12.7737 8.78433 11.8593 9.3208C11.602 9.47174 11.475 9.67458 11.485 9.98259C11.497 10.3456 11.47 10.7103 11.4923 11.0723C11.5193 11.5148 11.2527 11.7177 10.8734 11.7146C9.33272 11.702 7.79174 11.7084 6.2511 11.7108C6.12643 11.7108 6.0021 11.7327 5.87744 11.7426C5.45478 11.7767 5.00445 12.2384 5.06878 12.8507C5.11945 13.3322 5.53078 13.7529 6.03377 13.7532C7.72974 13.7546 9.42571 13.7539 11.1217 13.7539V13.7543ZM13.9563 6.87818C13.8046 6.72998 13.666 6.56846 13.5026 6.43972C13.0383 6.07297 12.495 5.92647 11.9197 5.9193C11.033 5.90803 10.1454 5.90086 9.25938 5.92715C8.95972 5.93603 8.64106 6.00228 8.3684 6.1276C7.41808 6.56538 6.87742 7.31664 6.85442 8.40836C6.84342 8.93015 6.84076 9.45364 6.86642 9.97474C6.88542 10.3616 7.21542 10.671 7.58174 10.6806C8.38506 10.7011 9.18905 10.6919 9.9927 10.684C10.2144 10.6819 10.3747 10.5532 10.46 10.3401C10.535 10.1537 10.4817 9.99386 10.3587 9.84703C10.24 9.70531 10.0844 9.6657 9.91371 9.66536C9.39805 9.66399 8.88239 9.65306 8.3674 9.66946C8.0704 9.67868 7.81874 9.4352 7.83041 9.11864C7.84241 8.7956 7.83874 8.47119 7.83141 8.14781C7.82474 7.84048 8.07207 7.60656 8.3354 7.61851C8.56873 7.6291 8.83739 7.80428 8.82639 8.14576C8.82106 8.30831 8.82539 8.47119 8.82539 8.64262C9.18005 8.64262 9.51705 8.64262 9.85437 8.64262C10.1884 8.64262 10.512 8.68735 10.7687 8.86424C11.769 8.09078 12.9 7.57515 13.9553 6.87852L13.9563 6.87818ZM9.22605 3.36091C9.20305 4.17467 9.88604 4.86309 10.6004 4.88905C11.5537 4.92354 12.2097 4.23169 12.2063 3.36057C12.203 2.47511 11.574 1.83415 10.6674 1.83517C9.88604 1.83586 9.21938 2.50994 9.22572 3.36126L9.22605 3.36091ZM1.74084 12.5567C1.70084 13.1679 2.2885 13.7915 2.91749 13.7549C3.50081 13.7211 4.05347 13.2762 4.05747 12.568C4.06113 11.8959 3.57448 11.3728 2.84549 11.3765C2.2275 11.3799 1.72684 11.9362 1.74117 12.5563L1.74084 12.5567ZM14.4866 10.1369C14.253 10.2722 14.055 10.42 13.834 10.5068C13.499 10.6386 13.4323 10.881 13.4836 11.2013C13.4846 11.2068 13.4836 11.2126 13.4836 11.2184C13.5006 11.468 13.744 11.7129 13.9706 11.7084C14.2436 11.703 14.482 11.4725 14.4853 11.2003C14.4896 10.8609 14.4863 10.5211 14.4863 10.1369H14.4866Z"/>
</mask>
<path d="M0.742188 12.1865C0.81952 11.9738 0.880852 11.7528 0.97785 11.55C1.23451 11.0111 1.65284 10.6369 2.2045 10.4559C3.08182 10.168 4.0378 10.4477 4.65312 11.257C5.04145 10.9053 5.49278 10.6946 6.0311 10.6857C5.86444 10.3473 5.82877 9.99352 5.8351 9.62779C5.84344 9.14528 5.80177 8.66003 5.84044 8.18093C5.8901 7.56456 6.09143 6.99121 6.43543 6.47011C6.96142 5.67343 7.68907 5.1916 8.58939 4.96349C8.63106 4.9529 8.67673 4.95768 8.75106 4.95325C8.2054 4.17501 8.06274 3.3353 8.37706 2.45257C8.58106 1.87957 8.95805 1.42642 9.49105 1.12626C10.5524 0.52832 11.8793 0.781359 12.6503 1.74297C13.395 2.6718 13.3973 3.99471 12.6643 4.95222C12.744 4.97373 12.8103 4.99183 12.8767 5.00993C13.755 5.24999 14.434 5.7711 14.9413 6.53841C14.971 6.58314 15.037 6.62173 15.09 6.62753C15.4829 6.67158 15.7936 6.86486 16.0429 7.1681C16.2629 7.43582 16.3699 7.75955 16.3716 8.09932C16.3739 8.58013 16.1986 8.99913 15.8296 9.31466C15.7603 9.37373 15.6636 9.40173 15.6013 9.46593C15.5503 9.51852 15.5053 9.60389 15.5039 9.6756C15.4953 10.124 15.5066 10.573 15.4966 11.0214C15.4916 11.2427 15.4553 11.4633 15.4306 11.7088C15.6726 11.7088 15.9293 11.7105 16.1856 11.7084C16.4773 11.7061 16.7543 11.7658 17.0093 11.9137C17.4269 12.1558 17.6629 12.5215 17.7449 13.0071C17.8356 13.5425 17.6442 13.9721 17.3426 14.3252C17.4759 14.6363 17.6109 14.9279 17.7236 15.2284C17.7672 15.3445 17.7716 15.4811 17.7729 15.6085C17.7782 16.1081 17.7616 16.6087 17.7799 17.1076C17.7919 17.4371 17.7082 17.6905 17.4093 17.8435H1.07485C0.963851 17.7298 0.853186 17.6164 0.742188 17.5027C0.742188 16.7644 0.742188 16.0258 0.742188 15.2875C0.753187 15.2769 0.77152 15.2681 0.77352 15.2558C0.853519 14.818 1.06885 14.4625 1.38918 14.1811C1.30351 14.066 1.22151 13.9486 1.13251 13.8369C0.921518 13.5733 0.845519 13.2489 0.742188 12.9361C0.742188 12.6865 0.742188 12.4365 0.742188 12.1865ZM16.7773 16.818C16.7773 16.4288 16.7806 16.0545 16.7749 15.6809C16.7736 15.5832 16.7549 15.4822 16.7256 15.3889C16.5873 14.9512 16.2806 14.7801 15.8283 14.7794C11.4323 14.7746 7.03609 14.7773 2.64016 14.7756C2.0685 14.7756 1.70784 15.1974 1.7365 15.698C1.75784 16.0692 1.74084 16.4424 1.74084 16.818H16.7779H16.7773ZM11.1217 13.7543C12.6013 13.7543 14.0813 13.7543 15.5609 13.7543C15.7993 13.7543 16.0376 13.7556 16.2759 13.7532C16.5253 13.7508 16.8359 13.4944 16.7473 13.141C16.6793 12.8709 16.5026 12.7322 16.1946 12.7319C15.1306 12.7312 14.0663 12.7267 13.0023 12.7349C12.7213 12.737 12.4867 12.4983 12.4893 12.2132C12.495 11.634 12.493 11.0548 12.4897 10.4757C12.4883 10.2472 12.576 10.0779 12.7697 9.96313C13.5423 9.50452 14.3123 9.04079 15.088 8.58696C15.393 8.40836 15.411 8.11844 15.3036 7.88009C15.2053 7.66188 14.8013 7.57139 14.593 7.69569C13.6823 8.2383 12.7737 8.78433 11.8593 9.3208C11.602 9.47174 11.475 9.67458 11.485 9.98259C11.497 10.3456 11.47 10.7103 11.4923 11.0723C11.5193 11.5148 11.2527 11.7177 10.8734 11.7146C9.33272 11.702 7.79174 11.7084 6.2511 11.7108C6.12643 11.7108 6.0021 11.7327 5.87744 11.7426C5.45478 11.7767 5.00445 12.2384 5.06878 12.8507C5.11945 13.3322 5.53078 13.7529 6.03377 13.7532C7.72974 13.7546 9.42571 13.7539 11.1217 13.7539V13.7543ZM13.9563 6.87818C13.8046 6.72998 13.666 6.56846 13.5026 6.43972C13.0383 6.07297 12.495 5.92647 11.9197 5.9193C11.033 5.90803 10.1454 5.90086 9.25938 5.92715C8.95972 5.93603 8.64106 6.00228 8.3684 6.1276C7.41808 6.56538 6.87742 7.31664 6.85442 8.40836C6.84342 8.93015 6.84076 9.45364 6.86642 9.97474C6.88542 10.3616 7.21542 10.671 7.58174 10.6806C8.38506 10.7011 9.18905 10.6919 9.9927 10.684C10.2144 10.6819 10.3747 10.5532 10.46 10.3401C10.535 10.1537 10.4817 9.99386 10.3587 9.84703C10.24 9.70531 10.0844 9.6657 9.91371 9.66536C9.39805 9.66399 8.88239 9.65306 8.3674 9.66946C8.0704 9.67868 7.81874 9.4352 7.83041 9.11864C7.84241 8.7956 7.83874 8.47119 7.83141 8.14781C7.82474 7.84048 8.07207 7.60656 8.3354 7.61851C8.56873 7.6291 8.83739 7.80428 8.82639 8.14576C8.82106 8.30831 8.82539 8.47119 8.82539 8.64262C9.18005 8.64262 9.51705 8.64262 9.85437 8.64262C10.1884 8.64262 10.512 8.68735 10.7687 8.86424C11.769 8.09078 12.9 7.57515 13.9553 6.87852L13.9563 6.87818ZM9.22605 3.36091C9.20305 4.17467 9.88604 4.86309 10.6004 4.88905C11.5537 4.92354 12.2097 4.23169 12.2063 3.36057C12.203 2.47511 11.574 1.83415 10.6674 1.83517C9.88604 1.83586 9.21938 2.50994 9.22572 3.36126L9.22605 3.36091ZM1.74084 12.5567C1.70084 13.1679 2.2885 13.7915 2.91749 13.7549C3.50081 13.7211 4.05347 13.2762 4.05747 12.568C4.06113 11.8959 3.57448 11.3728 2.84549 11.3765C2.2275 11.3799 1.72684 11.9362 1.74117 12.5563L1.74084 12.5567ZM14.4866 10.1369C14.253 10.2722 14.055 10.42 13.834 10.5068C13.499 10.6386 13.4323 10.881 13.4836 11.2013C13.4846 11.2068 13.4836 11.2126 13.4836 11.2184C13.5006 11.468 13.744 11.7129 13.9706 11.7084C14.2436 11.703 14.482 11.4725 14.4853 11.2003C14.4896 10.8609 14.4863 10.5211 14.4863 10.1369H14.4866Z" fill="#2F438F" stroke="white" stroke-width="0.263769" mask="url(#path-1-inside-1_149_2185)"/>
</svg>
