<svg width="15" height="19" viewBox="0 0 15 19" fill="none" xmlns="http://www.w3.org/2000/svg">
<g clip-path="url(#clip0_149_2189)">
<path d="M12.8359 10.9555C12.8359 11.118 12.8359 11.2771 12.8359 11.4368C12.8359 12.3134 12.8359 13.19 12.8359 14.0659C12.8353 14.9638 12.2779 15.545 11.4205 15.545C10.716 15.545 10.0116 15.5443 9.30717 15.545C8.73601 15.5463 8.3513 15.9443 8.34539 16.5427C8.34145 16.9325 8.34539 17.3215 8.34407 17.7113C8.34342 18.0046 8.23772 18.1162 7.95805 18.1162C6.10669 18.1162 4.25599 18.1162 2.40464 18.1162C2.1381 18.1162 2.02124 18.0122 2.02321 17.7636C2.03831 15.2592 1.5886 12.8443 0.767307 10.4983C0.517833 9.78557 0.295277 9.06186 0.18367 8.30785C-0.102567 6.36533 0.312346 4.59978 1.44745 3.03943C2.42893 1.69116 3.73079 0.852458 5.33595 0.606631C7.1466 0.32844 8.76358 0.835244 10.1521 2.08779C11.3128 3.13445 11.9975 4.4717 12.272 6.04513C12.2923 6.16288 12.3094 6.2827 12.3146 6.40182C12.3271 6.6869 12.4289 6.93273 12.5877 7.15928C12.9711 7.70877 13.3591 8.25414 13.7314 8.8119C13.9316 9.11212 14.0971 9.43714 14.1509 9.80691C14.231 10.355 13.9612 10.74 13.4097 10.8646C13.2292 10.9052 13.044 10.9231 12.8372 10.9548L12.8359 10.9555ZM12.2457 12.1061C12.2457 11.6544 12.2457 11.2261 12.2457 10.7971C12.2457 10.3798 12.3041 10.324 12.6954 10.3172C12.8851 10.3137 13.0782 10.2999 13.2626 10.2579C13.6007 10.1815 13.6782 10.0328 13.5298 9.70431C13.4044 9.4275 13.2462 9.16377 13.0801 8.91106C12.7276 8.37395 12.3573 7.84993 12.0015 7.31559C11.84 7.07251 11.7658 6.7957 11.7251 6.50029C11.6759 6.13947 11.6194 5.77589 11.5203 5.42747C10.8283 2.99811 8.78984 1.29591 6.54787 1.16646C4.96174 1.07487 3.57979 1.6044 2.46438 2.77501C0.852653 4.46619 0.343202 6.51613 0.899922 8.82842C1.12839 9.77799 1.46452 10.6993 1.74747 11.6351C2.18865 13.0963 2.46438 14.5899 2.55235 16.1213C2.57796 16.5723 2.59962 17.024 2.62326 17.4895H7.75519C7.75519 17.1652 7.7519 16.8512 7.75519 16.5379C7.76766 15.5863 8.40382 14.9259 9.31046 14.9232C10.0096 14.9211 10.7082 14.9238 11.4073 14.9211C11.5052 14.9211 11.6043 14.9114 11.6995 14.8901C11.9667 14.8316 12.2162 14.3261 12.2162 14.2456L12.2457 12.1061Z" fill="#2F438F"/>
<path d="M6.21064 10.9037C4.12097 10.903 2.41602 9.11058 2.41602 6.91535C2.41602 4.72218 4.12359 2.93253 6.21654 2.93115C8.30424 2.93046 10.021 4.7332 10.0151 6.92086C10.0092 9.11678 8.30227 10.9037 6.21064 10.903V10.9037ZM6.20144 10.286C7.97664 10.2888 9.42228 8.77937 9.42556 6.91879C9.42884 5.07199 7.98058 3.55089 6.21851 3.55089C4.45776 3.55089 3.01016 5.05684 3.00622 6.89263C3.00228 8.76215 4.43478 10.2833 6.20144 10.286Z" fill="#2F438F"/>
<path d="M6.1266 9.32446C5.56134 9.30105 5.0427 8.98774 4.69541 8.37214C4.57855 8.16556 4.61006 7.99823 4.77288 7.8977C4.94094 7.79441 5.08143 7.84537 5.20552 8.05332C5.59745 8.71093 6.34062 8.912 6.91047 8.49127C7.06869 8.37421 7.18358 8.18691 7.30437 8.02096C7.38381 7.91147 7.48032 7.82264 7.60243 7.85845C7.69434 7.8853 7.79413 7.97138 7.83811 8.05952C7.8716 8.127 7.84337 8.25026 7.80595 8.33014C7.52365 8.94092 6.91309 9.32309 6.1266 9.32309L6.1266 9.32446Z" fill="#2F438F"/>
<path d="M6.50067 6.10576C6.50264 5.73667 6.7462 5.47156 7.0784 5.47638C7.41387 5.4812 7.66072 5.75733 7.65678 6.12504C7.6535 6.47966 7.37711 6.77782 7.05542 6.773C6.74883 6.76887 6.49804 6.46727 6.50001 6.10644L6.50067 6.10576ZM7.26025 6.44936C7.25697 6.5134 7.16965 6.56436 7.06527 6.56229C6.96285 6.56092 6.8926 6.51203 6.89392 6.44523C6.89589 6.37155 6.97729 6.31853 7.08299 6.32266C7.18147 6.32679 7.26353 6.38532 7.26025 6.44936Z" fill="#2F438F"/>
<path d="M5.22664 6.77252C4.90626 6.77115 4.67058 6.49364 4.66992 6.11767C4.66992 5.74446 4.90692 5.47177 5.23321 5.47315C5.54702 5.47384 5.80371 5.76924 5.80043 6.12525C5.79649 6.47918 5.5352 6.7739 5.22664 6.77321V6.77252ZM5.49975 6.32218C5.55358 6.32218 5.59232 6.32218 5.59232 6.32218C5.59232 6.32218 5.55293 6.32218 5.49909 6.32218C5.4492 6.32218 5.40915 6.32218 5.40849 6.32218C5.40784 6.32218 5.44723 6.32218 5.49975 6.32218Z" fill="#2F438F"/>
</g>
<defs>
<clipPath id="clip0_149_2189">
<rect width="14.0677" height="17.5846" fill="white" transform="translate(0.0961914 0.532227)"/>
</clipPath>
</defs>
</svg>
